<svg width="0" height="0" class="hidden">
  <symbol xmlns="http://www.w3.org/2000/svg" viewBox="0 0 512 512" id="home">
    <path d="M498.195 222.695l-.035-.035L289.305 13.813C280.402 4.905 268.566 0 255.977 0c-12.59 0-24.426 4.902-33.332 13.809L13.898 222.55c-.07.07-.14.144-.21.215-18.282 18.386-18.25 48.218.09 66.558 8.378 8.383 19.445 13.238 31.277 13.746.48.047.965.07 1.453.07h8.324v153.7C54.832 487.254 79.578 512 110 512h81.71c8.282 0 15-6.715 15-15V376.5c0-13.879 11.29-25.168 25.169-25.168h48.195c13.88 0 25.168 11.29 25.168 25.168V497c0 8.285 6.715 15 15 15h81.711c30.422 0 55.168-24.746 55.168-55.16v-153.7h7.719c12.586 0 24.422-4.902 33.332-13.808 18.36-18.371 18.367-48.254.023-66.637zm0 0"></path>
  </symbol>
  <symbol xmlns="http://www.w3.org/2000/svg" viewBox="0 0 512 512" id="hot-food">
    <path d="M15.1 331c19.51 46.56 56.78 84.77 104.9 104.83V466c0 8.28 6.72 15 15 15h242c8.28 0 15-6.72 15-15v-30.17c48.12-20.06 85.39-58.27 104.9-104.83zM497 241H15c-8.28 0-15 6.72-15 15 0 15.38 1.82 30.46 5.3 45h501.4c3.48-14.54 5.3-29.62 5.3-45 0-8.28-6.72-15-15-15zm-341.606-64.393c-5.858-5.858-5.858-15.355 0-21.213 10.718-10.719 10.719-28.067 0-38.787-22.391-22.391-22.391-58.822 0-81.213 5.857-5.858 15.355-5.858 21.213 0s5.858 15.355 0 21.213c-10.718 10.719-10.719 28.067 0 38.787 22.391 22.391 22.391 58.822 0 81.213-5.857 5.857-15.356 5.858-21.213 0zm90 0c-5.858-5.858-5.858-15.355 0-21.213 10.718-10.719 10.719-28.067 0-38.787-22.391-22.391-22.391-58.822 0-81.213 5.857-5.858 15.355-5.858 21.213 0s5.858 15.355 0 21.213c-10.718 10.719-10.719 28.067 0 38.787 22.391 22.391 22.391 58.822 0 81.213-5.857 5.857-15.356 5.858-21.213 0zm90 0c-5.858-5.858-5.858-15.355 0-21.213 10.717-10.718 10.719-28.067 0-38.787-22.391-22.391-22.391-58.822 0-81.213 5.857-5.858 15.355-5.858 21.213 0s5.858 15.355 0 21.213c-10.717 10.718-10.719 28.067 0 38.787 22.391 22.391 22.391 58.822 0 81.213-5.857 5.857-15.356 5.858-21.213 0z"></path>
  </symbol>
  <symbol xmlns="http://www.w3.org/2000/svg" viewBox="0 0 512.005 512" id="logout">
    <path d="M320 277.336c-11.797 0-21.332 9.559-21.332 21.332v85.336c0 11.754-9.559 21.332-21.336 21.332h-64v-320c0-18.219-11.605-34.496-29.055-40.555l-6.316-2.113h99.371c11.777 0 21.336 9.578 21.336 21.336v64c0 11.773 9.535 21.332 21.332 21.332s21.332-9.559 21.332-21.332v-64c0-35.285-28.715-64-64-64H48c-.812 0-1.492.363-2.281.469-1.028-.086-2.008-.47-3.051-.47C19.137.004 0 19.138 0 42.669v384c0 18.219 11.605 34.496 29.055 40.555L157.44 510.02a44.195 44.195 0 0013.227 1.984c23.531 0 42.664-19.137 42.664-42.668v-21.332h64c35.285 0 64-28.715 64-64v-85.336c0-11.773-9.535-21.332-21.332-21.332zm0 0"></path>
    <path d="M505.75 198.254l-85.336-85.332a21.33 21.33 0 00-23.25-4.633C389.207 111.598 384 119.383 384 128.004v64h-85.332c-11.777 0-21.336 9.555-21.336 21.332 0 11.777 9.559 21.332 21.336 21.332H384v64c0 8.621 5.207 16.406 13.164 19.715a21.335 21.335 0 0023.25-4.63l85.336-85.335c8.34-8.34 8.34-21.824 0-30.164zm0 0"></path>
  </symbol>
  <symbol xmlns="http://www.w3.org/2000/svg" viewBox="0 0 56.966 56.966" id="search">
    <path d="M55.146 51.887L41.588 37.786A22.926 22.926 0 0046.984 23c0-12.682-10.318-23-23-23s-23 10.318-23 23 10.318 23 23 23c4.761 0 9.298-1.436 13.177-4.162l13.661 14.208c.571.593 1.339.92 2.162.92.779 0 1.518-.297 2.079-.837a3.004 3.004 0 00.083-4.242zM23.984 6c9.374 0 17 7.626 17 17s-7.626 17-17 17-17-7.626-17-17 7.626-17 17-17z"></path>
  </symbol>
  <symbol xmlns="http://www.w3.org/2000/svg" viewBox="0 0 433.664 433.664" id="stats">
    <path d="M258.048 37.658h-82.944c-8.483 0-15.36 6.877-15.36 15.36v327.526c0 8.483 6.877 15.36 15.36 15.36h82.944c8.483 0 15.36-6.877 15.36-15.36V53.018c0-8.484-6.877-15.36-15.36-15.36zm160.256 190.976H335.36c-8.483 0-15.36 6.877-15.36 15.36v136.653c0 8.483 6.877 15.36 15.36 15.36h82.944c8.483 0 15.36-6.877 15.36-15.36V243.994c0-8.484-6.877-15.36-15.36-15.36zm-320-68.608H15.36c-8.483 0-15.36 6.877-15.36 15.36v205.056c0 8.483 6.877 15.36 15.36 15.36h82.944c8.483 0 15.36-6.877 15.36-15.36V175.386c0-8.483-6.877-15.36-15.36-15.36z"></path>
  </symbol>
  <symbol xmlns="http://www.w3.org/2000/svg" viewBox="-42 0 512 512.002" id="user">
    <path d="M210.352 246.633c33.882 0 63.222-12.153 87.195-36.13 23.973-23.972 36.125-53.304 36.125-87.19 0-33.876-12.152-63.211-36.129-87.192C273.566 12.152 244.23 0 210.352 0c-33.887 0-63.22 12.152-87.192 36.125s-36.129 53.309-36.129 87.188c0 33.886 12.156 63.222 36.133 87.195 23.977 23.969 53.313 36.125 87.188 36.125zm215.777 147.07c-.692-9.976-2.09-20.86-4.149-32.351-2.078-11.579-4.753-22.524-7.957-32.528-3.308-10.34-7.808-20.55-13.37-30.336-5.774-10.156-12.555-19-20.165-26.277-7.957-7.613-17.699-13.734-28.965-18.2-11.226-4.44-23.668-6.69-36.976-6.69-5.227 0-10.281 2.144-20.043 8.5a2711.03 2711.03 0 01-20.879 13.46c-6.707 4.274-15.793 8.278-27.016 11.903-10.949 3.543-22.066 5.34-33.039 5.34-10.972 0-22.086-1.797-33.047-5.34-11.21-3.622-20.296-7.625-26.996-11.899a2853.13 2853.13 0 01-20.898-13.469c-9.75-6.355-14.809-8.5-20.035-8.5-13.313 0-25.75 2.254-36.973 6.7-11.258 4.457-21.004 10.578-28.969 18.199-7.605 7.281-14.39 16.12-20.156 26.273-5.558 9.785-10.058 19.992-13.371 30.34-3.2 10.004-5.875 20.945-7.953 32.524-2.059 11.476-3.457 22.363-4.149 32.363A438.821 438.821 0 000 423.949c0 26.727 8.496 48.363 25.25 64.32 16.547 15.747 38.441 23.735 65.066 23.735h246.532c26.625 0 48.511-7.984 65.062-23.734 16.758-15.946 25.254-37.586 25.254-64.325-.004-10.316-.351-20.492-1.035-30.242zm0 0"></path>
  </symbol>
</svg>