<svg width="0" height="0" class="hidden">
  <symbol xmlns="http://www.w3.org/2000/svg" viewBox="0 0 512.096 512.096" id="boisson">
    <path d="M416.437 261.902c0-18.514-4.024-36.322-11.962-52.928-15.537-32.507-17.875-68.606-6.583-101.648 2.313-6.769 5.954-13.47 1.315-19.957a12.493 12.493 0 00-10.143-5.214h-62.113l4.99-24.268a14.496 14.496 0 016.087-9.119l51.514-34.966a7.5 7.5 0 00-8.423-12.411l-51.515 34.966a29.414 29.414 0 00-12.355 18.509l-5.611 27.289h-76.749l37.695-37.628a11.712 11.712 0 003.435-8.515 11.662 11.662 0 00-3.77-8.329c-41.667-38.118-105.635-36.706-145.631 3.215l-.008.008-.002.002-.003.003c-39.992 39.93-41.4 103.784-3.184 145.398a11.707 11.707 0 008.311 3.731c.081.002.161.002.242.002 3.075 0 6.071-1.231 8.261-3.409l49.001-48.909c5.28 27.417 1.7 56.152-10.535 82.527a122.636 122.636 0 00-7.073 19.381 7.5 7.5 0 0014.475 3.933 107.527 107.527 0 016.205-17.002c15.644-33.723 18.522-70.979 8.281-105.513-1.007-3.395-3.376-10.411-4.571-13.897 2.912-.703 109.402.738 112.535 0l-11.651 56.665c-7.811 3.703-14.741 7.215-24.15 9.438-11.775 2.782-24.044 2.736-37.505-.137a12.536 12.536 0 00-9.832 2.015 12.523 12.523 0 00-5.176 8.584c-2.208 16.881-7.029 33.422-14.328 49.166-5.69 12.284-8.575 25.413-8.575 39.022 0 51.634 42.415 93.641 94.55 93.641s94.55-42.007 94.55-93.641c0-14.006-3.04-27.462-9.034-39.997a173.496 173.496 0 01-5.082-11.71c-1.507-3.859-5.858-5.767-9.714-4.257a7.499 7.499 0 00-4.257 9.714 188.749 188.749 0 005.522 12.726c5.021 10.497 7.566 21.776 7.566 33.524 0 43.362-35.686 78.641-79.55 78.641s-79.55-35.278-79.55-78.641c0-11.417 2.417-22.424 7.184-32.715 7.557-16.299 12.673-33.4 15.224-50.871 14.516 2.763 28.449 2.607 41.453-.464 6.477-1.527 11.927-3.563 16.945-5.751L272.08 274.541a7.5 7.5 0 1014.692 3.021l23.283-113.237c6.112-2.595 12.718-4.782 21.296-5.935a89.965 89.965 0 0114.656-.737c.339 7.652 1.18 15.35 2.503 22.915a7.495 7.495 0 008.68 6.096 7.5 7.5 0 006.096-8.68 164.394 164.394 0 01-2.373-23.121c-.202-6.532-5.29-11.729-11.834-12.091a105.392 105.392 0 00-19.722.751c-5.964.802-11.105 2.025-15.741 3.486l10.251-49.855h61.649l-1.818 5.321c-12.568 36.778-9.996 76.897 7.245 112.967 6.964 14.57 10.495 30.202 10.495 46.459 0 59.906-49.143 108.644-109.548 108.644-28.545 0-55.57-10.828-76.097-30.49-20.459-19.598-32.311-45.882-33.373-74.011-.156-4.139-3.61-7.343-7.778-7.212a7.5 7.5 0 00-7.211 7.778c1.209 32.041 14.7 61.971 37.986 84.277 17.849 17.097 40.018 28.309 63.97 32.639v81.729a3.484 3.484 0 01-1.928 3.129l-43.644 21.937c-4.786 2.4-7.267 7.715-6.034 12.925s5.833 8.85 11.186 8.85h125.84c5.358 0 9.962-3.641 11.195-8.853a11.45 11.45 0 00-6.028-12.919l-43.651-21.936a3.495 3.495 0 01-1.936-3.133V383.52c57.974-10.544 102.05-61.064 102.05-121.618zm-284.29-214.87l46.933 46.837.483 1.431-67.146-7.532c2.909-14.648 9.494-28.704 19.73-40.736zm-.011 116.493c-14.943-17.563-22.036-39.311-21.409-60.853l74.054 8.307zm56.44-81.37l-45.811-45.717a90.057 90.057 0 0140.835-19.69l7.364 65.408h-2.388zm25.08 0h-7.597l-7.553-67.09c21.58-.627 43.368 6.446 60.968 21.353zm126.387 414.941h-96.306l30.458-15.309c6.286-3.16 10.191-9.495 10.191-16.531v-79.94c2.489.147 4.99.229 7.502.229 2.518 0 5.016-.083 7.498-.23v79.941c0 7.028 3.902 13.36 10.192 16.531z"></path>
  </symbol>
  <symbol xmlns="http://www.w3.org/2000/svg" viewBox="0 0 512 512" id="burger">
    <path d="M383.071 148.928c-3.905-3.904-10.237-3.904-14.143 0l-20 20c-3.905 3.905-3.905 10.237 0 14.143 3.907 3.906 10.238 3.905 14.143 0l20-20c3.905-3.905 3.905-10.237 0-14.143zm-240 0c-3.905-3.904-10.237-3.904-14.143 0l-20 20c-3.905 3.905-3.905 10.237 0 14.143 3.907 3.906 10.238 3.905 14.143 0l20-20c3.905-3.905 3.905-10.237 0-14.143zm190-40c-3.905-3.904-10.237-3.904-14.143 0l-20 20c-3.905 3.905-3.905 10.237 0 14.143 3.907 3.906 10.238 3.905 14.143 0l20-20c3.905-3.905 3.905-10.237 0-14.143zm-120 0c-3.905-3.904-10.237-3.904-14.143 0l-20 20c-3.905 3.905-3.905 10.237 0 14.143 3.907 3.906 10.238 3.905 14.143 0l20-20c3.905-3.905 3.905-10.237 0-14.143zm50 40c-3.905-3.904-10.237-3.904-14.143 0l-20 20c-3.905 3.905-3.905 10.237 0 14.143 3.907 3.906 10.238 3.905 14.143 0l20-20c3.905-3.905 3.905-10.237 0-14.143z"></path>
    <path d="M512 356c0-16.542-13.458-30-30-30h-10v-32.23c.412-.358.832-.701 1.237-1.07 6.491-5.917 20.049-9.7 28.889-9.812 5.522-.069 9.943-4.603 9.873-10.125-.069-5.479-4.532-9.874-9.997-9.874l-.128.001c-8.581.108-19.982 2.386-29.874 7.063V243.74c12.176-4.983 20.271-17.519 18.533-31.435C478.737 117.496 397.686 46 302 46h-92c-95.686 0-176.737 71.496-188.533 166.301-1.733 13.875 6.307 26.437 18.533 31.44v25.771c-9.929-4.498-21.357-6.748-30.131-6.622-5.522.072-9.94 4.608-9.868 10.131.072 5.478 4.535 9.868 9.997 9.868l.134-.001c8.942-.137 22.822 3.599 29.592 9.774.09.083.186.161.277.243V326H30c-16.574 0-30 13.424-30 30 0 14.865 10.87 27.233 25.078 29.589-2.337 6.169-2.505 12.909-.338 19.313C37.134 441.446 71.397 466 110 466h292c38.603 0 72.866-24.554 85.263-61.104 2.165-6.398 1.997-13.135-.339-19.303C500.864 383.301 512 371.17 512 356zM41.313 214.774C51.867 129.959 124.386 66 210 66h92c85.614 0 158.133 63.959 168.687 148.779.722 5.779-3.787 10.811-9.356 11.184-.066.004-.132.01-.198.016a5.866 5.866 0 01-.513.021H51.38c-5.89 0-10.82-5.186-10.067-11.226zm371.925 63.146c-21.975-20.039-51.502-20.039-73.477 0-14.349 13.084-32.175 13.084-46.523 0-21.975-20.039-51.502-20.039-73.477 0-14.349 13.084-32.175 13.084-46.523 0-21.975-20.038-51.502-20.04-73.479.002-12.161 11.098-26.73 12.859-39.759 5.053V246h392v37.555c-12.759 7.099-26.953 5.134-38.762-5.635zM452 305.243V326H60v-21.057c5.407 1.871 10.956 2.807 16.5 2.806 12.905 0 25.776-5.048 36.739-15.051 14.348-13.084 32.175-13.084 46.523 0 21.975 20.041 51.503 20.04 73.477 0 14.349-13.084 32.176-13.084 46.523 0 21.975 20.041 51.503 20.04 73.477 0 14.348-13.085 32.175-13.083 46.523 0 15.297 13.952 34.503 18.24 52.238 12.545zm16.32 93.236C458.68 426.902 432.028 446 402 446H110c-30.028 0-56.68-19.098-66.317-47.515C41.608 392.355 46.901 386 53.46 386h405.08c6.583 0 11.842 6.385 9.78 12.479zM482 366H30c-5.514 0-10-4.486-10-10 0-5.521 4.479-10 10-10h452c5.514 0 10 4.486 10 10 0 5.521-4.479 10-10 10z"></path>
  </symbol>
  <symbol xmlns="http://www.w3.org/2000/svg" viewBox="0 0 30 30" id="checkbox">
    <path d="M24 4H6a2 2 0 00-2 2v18a2 2 0 002 2h18a2 2 0 002-2V6a2 2 0 00-2-2zm-2.293 7.707l-7.56 7.56a1 1 0 01-1.414 0L9.28 15.814a.999.999 0 111.414-1.414l2.746 2.746 6.853-6.853a.999.999 0 111.414 1.414z"></path>
  </symbol>
  <symbol xmlns="http://www.w3.org/2000/svg" viewBox="0 0 329.269 329" id="close">
    <path d="M194.8 164.77L323.013 36.555c8.343-8.34 8.343-21.825 0-30.164-8.34-8.34-21.825-8.34-30.164 0L164.633 134.605 36.422 6.391c-8.344-8.34-21.824-8.34-30.164 0-8.344 8.34-8.344 21.824 0 30.164l128.21 128.215L6.259 292.984c-8.344 8.34-8.344 21.825 0 30.164a21.266 21.266 0 0015.082 6.25c5.46 0 10.922-2.09 15.082-6.25l128.21-128.214 128.216 128.214a21.273 21.273 0 0015.082 6.25c5.46 0 10.922-2.09 15.082-6.25 8.343-8.34 8.343-21.824 0-30.164zm0 0"></path>
  </symbol>
  <symbol xmlns="http://www.w3.org/2000/svg" viewBox="0 0 384 384" id="delete">
    <path d="M64 341.333C64 364.907 83.093 384 106.667 384h170.667C300.907 384 320 364.907 320 341.333v-256H64v256zm202.667-320L245.333 0H138.667l-21.334 21.333H42.667V64h298.666V21.333z"></path>
  </symbol>
  <symbol xmlns="http://www.w3.org/2000/svg" viewBox="0 0 480.005 480.005" id="dessert">
    <path d="M112.002 208.005h16v16h-16zm40-16h16v16h-16zm48 16h16v16h-16zm48-16h16v16h-16zm56 0h16v16h-16zm40 16h16v16h-16zm-96-160h16v16h-16zm-64 64h16v16h-16zm40 16h16v16h-16zm72-16h16v16h-16z"></path>
    <path d="M403.514 240.181c17.819-19.562 16.406-49.865-3.156-67.684a47.91 47.91 0 00-32.356-12.492h-20.32c17.717-19.66 16.142-49.96-3.518-67.678a47.918 47.918 0 00-32.162-12.322h-.552c-4.056-31.967-31.225-55.946-63.448-56h-10.968a12.801 12.801 0 01-12.8-9.6 12.27 12.27 0 010-4.8 8.083 8.083 0 00-1.84-6.656 8.433 8.433 0 00-6.392-2.944c-20.547-.286-38.924 12.736-45.464 32.216a48.52 48.52 0 006.624 44 47.672 47.672 0 003.12 3.8h-12.28c-26.465-.045-47.957 21.372-48.002 47.838a47.923 47.923 0 0012.322 32.162h-20.32c-26.461-.051-47.953 21.359-48.004 47.82a47.91 47.91 0 0012.492 32.356c-25.055 1.838-44.455 22.685-44.488 47.808a47.41 47.41 0 0020.88 39.304l51.568 147.336a8 8 0 007.552 5.36h256a8 8 0 007.552-5.36l51.568-147.336a47.41 47.41 0 0020.88-39.304c-.024-25.129-19.426-45.986-44.488-47.824zM185.762 37.205a31.2 31.2 0 0122.68-20.224c0 .16.056.32.08.48 2.918 13.348 14.85 22.783 28.512 22.544h10.968c23.413.029 43.401 16.92 47.336 40h-79.336a32.144 32.144 0 01-25.904-13.2 32.684 32.684 0 01-4.336-29.6zm-17.76 58.8h144c17.673 0 32 14.327 32 32s-14.327 32-32 32h-144c-17.673 0-32-14.327-32-32s14.327-32 32-32zm-56 80h256c17.673 0 32 14.327 32 32s-14.327 32-32 32h-256c-17.673 0-32-14.327-32-32s14.327-32 32-32zm5.68 288L65.09 313.741a26.679 26.679 0 0116.8-7.552 27.073 27.073 0 0120.8 7.752l1.856 1.856 22.168 148.208h-9.032zm25.216 0l-22.4-149.2 4.616-4.616c10.432-10.401 27.312-10.401 37.744 0l5.304 5.288 7.424 148.528h-32.688zm89.104 0h-40.384l-7.448-148.856 4.96-4.96c10.432-10.401 27.312-10.401 37.744 0l5.128 5.128v148.688zm56.384 0h-40.384V315.317l5.128-5.128c10.432-10.401 27.312-10.401 37.744 0l4.96 4.96-7.448 148.856zm16.032 0l7.424-148.528 5.288-5.288c10.432-10.401 27.312-10.401 37.744 0l4.616 4.616-22.384 149.2h-32.688zm57.904 0h-9.032l22.232-148.208 1.856-1.856c10.34-10.35 27.087-10.439 37.536-.2l-52.592 150.264zm65.376-160.056l-.096-.088a42.893 42.893 0 00-5.384-4.856c-.304-.232-.6-.472-.904-.696a42.645 42.645 0 00-5.96-3.608c-.376-.192-.752-.368-1.144-.552a42.211 42.211 0 00-6.584-2.4c-.32-.096-.648-.152-.976-.232a42.757 42.757 0 00-7.376-1.24 42.812 42.812 0 00-3.032-.104c-1.008 0-1.928.192-2.896.256-1.264.088-2.52.152-3.768.344-1.4.224-2.752.592-4.12.952-1.224.32-2.448.584-3.64 1.008a42.127 42.127 0 00-4.376 1.992c-.944.464-1.92.8-2.824 1.36a42.657 42.657 0 00-6.552 4.712l-1.88-1.88c-16.683-16.639-43.685-16.639-60.368 0l-1.816 1.776-1.816-1.816c-16.683-16.639-43.685-16.639-60.368 0l-1.816 1.816-1.816-1.816c-16.683-16.639-43.685-16.639-60.368 0l-1.816 1.816-1.816-1.816c-16.683-16.639-43.685-16.639-60.368 0l-1.88 1.88a42.033 42.033 0 00-38.584-9.28c-.328.08-.656.136-.976.232a42.211 42.211 0 00-6.584 2.4c-.392.184-.8.36-1.144.552a42.645 42.645 0 00-5.96 3.608c-.304.224-.6.464-.904.696a42.963 42.963 0 00-5.384 4.856l-.096.088a31.393 31.393 0 01-4.304-15.904c0-17.673 14.327-32 32-32h320c17.673 0 32 14.327 32 32a31.396 31.396 0 01-4.304 15.944z"></path>
  </symbol>
  <symbol xmlns="http://www.w3.org/2000/svg" viewBox="0 0 240.811 240.811" id="dropdown">
    <path d="M220.088 57.667l-99.671 99.695-99.671-99.707a12.147 12.147 0 00-17.191 0c-4.74 4.752-4.74 12.451 0 17.203l108.261 108.297c4.74 4.752 12.439 4.752 17.179 0L237.256 74.859c4.74-4.752 4.74-12.463 0-17.215-4.728-4.729-12.428-4.729-17.168.023z"></path>
  </symbol>
  <symbol xmlns="http://www.w3.org/2000/svg" viewBox="0 0 383.947 383.947" id="edit">
    <path d="M0 303.947v80h80l236.053-236.054-80-80zM377.707 56.053L327.893 6.24c-8.32-8.32-21.867-8.32-30.187 0l-39.04 39.04 80 80 39.04-39.04c8.321-8.32 8.321-21.867.001-30.187z"></path>
  </symbol>
  <symbol xmlns="http://www.w3.org/2000/svg" viewBox="0 0 486.463 486.463" id="error">
    <path d="M243.225 333.382c-13.6 0-25 11.4-25 25s11.4 25 25 25c13.1 0 25-11.4 24.4-24.4.6-14.3-10.7-25.6-24.4-25.6z"></path>
    <path d="M474.625 421.982c15.7-27.1 15.8-59.4.2-86.4l-156.6-271.2c-15.5-27.3-43.5-43.5-74.9-43.5s-59.4 16.3-74.9 43.4l-156.8 271.5c-15.6 27.3-15.5 59.8.3 86.9 15.6 26.8 43.5 42.9 74.7 42.9h312.8c31.3 0 59.4-16.3 75.2-43.6zm-34-19.6c-8.7 15-24.1 23.9-41.3 23.9h-312.8c-17 0-32.3-8.7-40.8-23.4-8.6-14.9-8.7-32.7-.1-47.7l156.8-271.4c8.5-14.9 23.7-23.7 40.9-23.7 17.1 0 32.4 8.9 40.9 23.8l156.7 271.4c8.4 14.6 8.3 32.2-.3 47.1z"></path>
    <path d="M237.025 157.882c-11.9 3.4-19.3 14.2-19.3 27.3.6 7.9 1.1 15.9 1.7 23.8 1.7 30.1 3.4 59.6 5.1 89.7.6 10.2 8.5 17.6 18.7 17.6s18.2-7.9 18.7-18.2c0-6.2 0-11.9.6-18.2 1.1-19.3 2.3-38.6 3.4-57.9.6-12.5 1.7-25 2.3-37.5 0-4.5-.6-8.5-2.3-12.5-5.1-11.2-17-16.9-28.9-14.1z"></path>
  </symbol>
  <symbol xmlns="http://www.w3.org/2000/svg" viewBox="0 0 512 512" id="home">
    <path d="M498.195 222.695l-.035-.035L289.305 13.813C280.402 4.905 268.566 0 255.977 0c-12.59 0-24.426 4.902-33.332 13.809L13.898 222.55c-.07.07-.14.144-.21.215-18.282 18.386-18.25 48.218.09 66.558 8.378 8.383 19.445 13.238 31.277 13.746.48.047.965.07 1.453.07h8.324v153.7C54.832 487.254 79.578 512 110 512h81.71c8.282 0 15-6.715 15-15V376.5c0-13.879 11.29-25.168 25.169-25.168h48.195c13.88 0 25.168 11.29 25.168 25.168V497c0 8.285 6.715 15 15 15h81.711c30.422 0 55.168-24.746 55.168-55.16v-153.7h7.719c12.586 0 24.422-4.902 33.332-13.808 18.36-18.371 18.367-48.254.023-66.637zm0 0"></path>
  </symbol>
  <symbol xmlns="http://www.w3.org/2000/svg" viewBox="0 0 512 512" id="hot-food">
    <path d="M15.1 331c19.51 46.56 56.78 84.77 104.9 104.83V466c0 8.28 6.72 15 15 15h242c8.28 0 15-6.72 15-15v-30.17c48.12-20.06 85.39-58.27 104.9-104.83zM497 241H15c-8.28 0-15 6.72-15 15 0 15.38 1.82 30.46 5.3 45h501.4c3.48-14.54 5.3-29.62 5.3-45 0-8.28-6.72-15-15-15zm-341.606-64.393c-5.858-5.858-5.858-15.355 0-21.213 10.718-10.719 10.719-28.067 0-38.787-22.391-22.391-22.391-58.822 0-81.213 5.857-5.858 15.355-5.858 21.213 0s5.858 15.355 0 21.213c-10.718 10.719-10.719 28.067 0 38.787 22.391 22.391 22.391 58.822 0 81.213-5.857 5.857-15.356 5.858-21.213 0zm90 0c-5.858-5.858-5.858-15.355 0-21.213 10.718-10.719 10.719-28.067 0-38.787-22.391-22.391-22.391-58.822 0-81.213 5.857-5.858 15.355-5.858 21.213 0s5.858 15.355 0 21.213c-10.718 10.719-10.719 28.067 0 38.787 22.391 22.391 22.391 58.822 0 81.213-5.857 5.857-15.356 5.858-21.213 0zm90 0c-5.858-5.858-5.858-15.355 0-21.213 10.717-10.718 10.719-28.067 0-38.787-22.391-22.391-22.391-58.822 0-81.213 5.857-5.858 15.355-5.858 21.213 0s5.858 15.355 0 21.213c-10.717 10.718-10.719 28.067 0 38.787 22.391 22.391 22.391 58.822 0 81.213-5.857 5.857-15.356 5.858-21.213 0z"></path>
  </symbol>
  <symbol xmlns="http://www.w3.org/2000/svg" viewBox="0 0 512.18 512.18" id="list">
    <path d="M448.18 80h-320c-17.673 0-32 14.327-32 32s14.327 32 32 32h320c17.673 0 32-14.327 32-32s-14.327-32-32-32zm-384 32a32.004 32.004 0 00-9.44-22.56c-12.481-12.407-32.639-12.407-45.12 0A31.996 31.996 0 00.18 112a27.243 27.243 0 000 6.24 28.851 28.851 0 001.76 6.08 37.139 37.139 0 003.04 5.44 29.275 29.275 0 004 4.96 28.322 28.322 0 004.8 3.84 26.073 26.073 0 005.44 3.04 26.412 26.412 0 006.72 2.4 28.06 28.06 0 006.24 0 31.999 31.999 0 0022.56-9.28 29.275 29.275 0 004-4.96 37.139 37.139 0 003.04-5.44 29.714 29.714 0 002.4-6.08 27.243 27.243 0 000-6.24zm0 144a27.356 27.356 0 000-6.24 25.927 25.927 0 00-2.4-5.92 31.985 31.985 0 00-3.04-5.6 23.044 23.044 0 00-4-4.8c-12.481-12.407-32.639-12.407-45.12 0A31.996 31.996 0 00.18 256a35.512 35.512 0 002.4 12.32 35.802 35.802 0 002.88 5.44 30.727 30.727 0 004.16 4.8 23.363 23.363 0 004.8 4 25.958 25.958 0 005.44 3.04 27.212 27.212 0 006.08 1.76c2.047.459 4.142.674 6.24.64 2.073.239 4.167.239 6.24 0a25.968 25.968 0 005.92-1.76 26.72 26.72 0 005.6-3.04 23.363 23.363 0 004.8-4 23.363 23.363 0 004-4.8 25.73 25.73 0 003.04-5.44 27.07 27.07 0 002.4-6.72 26.473 26.473 0 000-6.24zm0 144a27.471 27.471 0 000-6.24 27.238 27.238 0 00-2.4-6.08 37.139 37.139 0 00-3.04-5.44 23.363 23.363 0 00-4-4.8c-12.481-12.407-32.639-12.407-45.12 0a23.363 23.363 0 00-4 4.8 37.139 37.139 0 00-3.04 5.44 26.224 26.224 0 00-1.76 6.08A27.499 27.499 0 00.18 400a32.004 32.004 0 009.44 22.56 23.363 23.363 0 004.8 4 25.958 25.958 0 005.44 3.04 27.212 27.212 0 006.08 1.76c2.047.459 4.142.674 6.24.64 2.073.239 4.167.239 6.24 0a25.968 25.968 0 005.92-1.76 26.72 26.72 0 005.6-3.04 23.363 23.363 0 004.8-4 23.363 23.363 0 004-4.8 25.617 25.617 0 003.04-5.44 27.164 27.164 0 002.4-6.72 26.473 26.473 0 000-6.24zm416-176h-352c-17.673 0-32 14.327-32 32s14.327 32 32 32h352c17.673 0 32-14.327 32-32s-14.327-32-32-32zm-144 144h-208c-17.673 0-32 14.327-32 32 0 17.673 14.327 32 32 32h208c17.673 0 32-14.327 32-32 0-17.673-14.327-32-32-32z"></path>
  </symbol>
  <symbol xmlns="http://www.w3.org/2000/svg" viewBox="0 0 512.005 512" id="logout">
    <path d="M320 277.336c-11.797 0-21.332 9.559-21.332 21.332v85.336c0 11.754-9.559 21.332-21.336 21.332h-64v-320c0-18.219-11.605-34.496-29.055-40.555l-6.316-2.113h99.371c11.777 0 21.336 9.578 21.336 21.336v64c0 11.773 9.535 21.332 21.332 21.332s21.332-9.559 21.332-21.332v-64c0-35.285-28.715-64-64-64H48c-.812 0-1.492.363-2.281.469-1.028-.086-2.008-.47-3.051-.47C19.137.004 0 19.138 0 42.669v384c0 18.219 11.605 34.496 29.055 40.555L157.44 510.02a44.195 44.195 0 0013.227 1.984c23.531 0 42.664-19.137 42.664-42.668v-21.332h64c35.285 0 64-28.715 64-64v-85.336c0-11.773-9.535-21.332-21.332-21.332zm0 0"></path>
    <path d="M505.75 198.254l-85.336-85.332a21.33 21.33 0 00-23.25-4.633C389.207 111.598 384 119.383 384 128.004v64h-85.332c-11.777 0-21.336 9.555-21.336 21.332 0 11.777 9.559 21.332 21.336 21.332H384v64c0 8.621 5.207 16.406 13.164 19.715a21.335 21.335 0 0023.25-4.63l85.336-85.335c8.34-8.34 8.34-21.824 0-30.164zm0 0"></path>
  </symbol>
  <symbol xmlns="http://www.w3.org/2000/svg" viewBox="0 0 515.555 515.555" id="more">
    <path d="M496.679 212.208c25.167 25.167 25.167 65.971 0 91.138s-65.971 25.167-91.138 0-25.167-65.971 0-91.138 65.971-25.167 91.138 0m-193.332 0c25.167 25.167 25.167 65.971 0 91.138s-65.971 25.167-91.138 0-25.167-65.971 0-91.138 65.971-25.167 91.138 0m-193.333 0c25.167 25.167 25.167 65.971 0 91.138s-65.971 25.167-91.138 0-25.167-65.971 0-91.138 65.971-25.167 91.138 0"></path>
  </symbol>
  <symbol xmlns="http://www.w3.org/2000/svg" viewBox="0 0 512 512" id="nachos">
    <path d="M448.55 291.421a7.601 7.601 0 00-10.728-.741l-7.984 6.952c-3.167 2.759-3.453 7.523-.741 10.728 3.827 4.524 9.288 1.996 10.728.741l7.984-6.952a7.605 7.605 0 00.741-10.728z"></path>
    <path d="M511.201 218.185c-2.963-15.164-13.88-27.703-28.493-32.722l-193.78-66.547-29.515-51.12c-11.887-20.595-34.046-33.389-57.828-33.389-23.78 0-45.939 12.793-57.83 33.394L51.918 227.267c-.506.891-12.373 22.098-12.373 47.78v20.021L7.062 351.331C2.44 358.389 0 366.591 0 375.067c0 23.925 19.463 43.389 43.389 43.389h134.096a42.057 42.057 0 005.71 1.898l3.87 19.824a43.226 43.226 0 0010.262 22.537c8.567 9.84 20.627 14.879 32.751 14.878 10.107-.001 20.26-3.504 28.464-10.647l.016-.014.036-.031 55.273-48.128 45.848-.317c15.451 0 29.849-8.313 37.576-21.695 7.725-13.381 7.725-30.007 0-43.388l-2.781-4.817 27.187-23.673a7.604 7.604 0 00.741-10.728 7.602 7.602 0 00-10.728-.741l-24.948 21.723-40.745-70.572c.173-1.444 3.515-38.622-13.751-70.59l-31.757-55.003 177.26 60.873c9.491 3.26 16.582 11.403 18.506 21.254 1.922 9.849-1.585 20.062-9.152 26.652l-30.743 26.768a7.604 7.604 0 004.997 13.339 7.563 7.563 0 004.99-1.87l30.743-26.768c11.653-10.145 17.053-25.869 14.091-41.035zM43.459 403.249a.548.548 0 00-.07-.001c-15.539 0-28.181-12.641-28.181-28.181a28.032 28.032 0 014.666-15.54c.086-.131 21.13-36.571 21.13-36.571 4.428 15.25 18.481 26.448 35.122 26.528 2.302.078 16.256.202 26.449-9.36 6.958-6.527 10.487-15.745 10.487-27.396v-26.154c0-11.883 9.667-21.55 21.55-21.55 11.882 0 21.548 9.666 21.55 21.547v98.305c0 7.457 1.589 13.499 4.155 18.372H43.459zm205.15 52.182l-.053.046c-11.72 10.203-29.555 8.97-39.759-2.749a28.038 28.038 0 01-6.688-14.784 8.813 8.813 0 00-.075-.46l-3.189-16.334a36.446 36.446 0 008.993-2.693h83.234l-42.463 36.974zm70.47-253.881c.118.208 11.83 21.065 12.003 46.897v11.72c0 11.883-9.667 21.55-21.55 21.55-11.883 0-21.55-9.667-21.55-21.55v-14.878c0-.102.718-35.693-36.758-35.693-20.268 0-36.758 16.49-36.758 36.757v56.646c0 4.2 3.404 7.604 7.604 7.604s7.604-3.404 7.604-7.604v-56.646c0-11.883 9.667-21.549 21.55-21.549 22.521 0 21.493 19.962 21.55 20.704v14.659c0 20.268 16.49 36.758 36.758 36.758 11.91 0 22.51-5.698 29.232-14.506l45.358 78.559c5.017 8.69 5.017 19.49 0 28.181-5.018 8.691-14.37 14.09-24.405 14.09H224.733a36.52 36.52 0 004.942-18.372v-58.051c0-4.201-3.404-7.604-7.604-7.604s-7.604 3.404-7.604 7.604v58.051c0 11.883-9.666 21.55-21.549 21.55-.055 0-5.737-.122-11.176-2.842-6.981-3.49-10.373-9.609-10.373-18.708v-98.306c-.003-20.266-16.493-36.754-36.758-36.754-20.268 0-36.758 16.49-36.758 36.758v26.154c0 7.234-1.887 12.695-5.608 16.234-6.026 5.732-15.418 5.332-15.458 5.331a7.1 7.1 0 00-.485-.016c-11.883 0-21.55-9.666-21.55-21.549v-37.681c0-21.553 10.294-40.101 10.368-40.232l91.81-159.418c9.182-15.904 26.293-25.783 44.656-25.783 18.366 0 35.477 9.879 44.658 25.784l72.835 126.151z"></path>
    <path d="M418.03 216.799a7.659 7.659 0 00-5.384-2.231 7.643 7.643 0 00-5.373 2.231 7.634 7.634 0 00-2.231 5.374c0 2.007.811 3.964 2.231 5.384a7.681 7.681 0 005.373 2.22 7.695 7.695 0 005.384-2.22 7.69 7.69 0 002.22-5.384 7.675 7.675 0 00-2.22-5.374zm46.638 7.604a7.659 7.659 0 00-5.384-2.231 7.647 7.647 0 00-5.374 2.231 7.634 7.634 0 00-2.231 5.374c0 2.007.811 3.964 2.231 5.384a7.682 7.682 0 005.374 2.22 7.695 7.695 0 005.384-2.22 7.69 7.69 0 002.22-5.384 7.67 7.67 0 00-2.22-5.374zm-31.43 33.835a7.659 7.659 0 00-5.384-2.231 7.647 7.647 0 00-5.374 2.231 7.634 7.634 0 00-2.231 5.374c0 2.008.811 3.964 2.231 5.384a7.682 7.682 0 005.374 2.22 7.699 7.699 0 005.384-2.22 7.69 7.69 0 002.22-5.384 7.67 7.67 0 00-2.22-5.374zm-108.793 53.526a7.659 7.659 0 00-5.384-2.231 7.647 7.647 0 00-5.374 2.231 7.633 7.633 0 00-2.231 5.373c0 2.008.811 3.964 2.231 5.384a7.682 7.682 0 005.374 2.22 7.699 7.699 0 005.384-2.22 7.69 7.69 0 002.22-5.384c0-1.997-.81-3.954-2.22-5.373zM88.319 376.838a7.659 7.659 0 00-5.384-2.231 7.647 7.647 0 00-5.374 2.231 7.634 7.634 0 00-2.231 5.374c0 2.008.811 3.964 2.231 5.384a7.682 7.682 0 005.374 2.22 7.695 7.695 0 005.384-2.22 7.69 7.69 0 002.22-5.384c0-1.997-.81-3.954-2.22-5.374zm43.179-32.367a7.659 7.659 0 00-5.384-2.231 7.647 7.647 0 00-5.374 2.231 7.632 7.632 0 00-2.23 5.373c0 2.008.811 3.964 2.23 5.384a7.682 7.682 0 005.374 2.22 7.691 7.691 0 005.384-2.22 7.69 7.69 0 002.22-5.384 7.67 7.67 0 00-2.22-5.373zm136.44-42.542c-13.117 0-23.789 10.671-23.789 23.788s10.671 23.789 23.789 23.789c13.117 0 23.788-10.672 23.788-23.789s-10.671-23.788-23.788-23.788zm0 32.368c-4.731 0-8.58-3.85-8.58-8.58 0-4.731 3.85-8.579 8.58-8.579s8.579 3.849 8.579 8.579c.001 4.731-3.848 8.58-8.579 8.58zm51.122 7.943c-13.116 0-23.787 10.671-23.787 23.788s10.671 23.789 23.787 23.789c13.117 0 23.789-10.671 23.789-23.789-.001-13.117-10.672-23.788-23.789-23.788zm0 32.368c-4.731 0-8.579-3.85-8.579-8.58 0-4.731 3.849-8.579 8.579-8.579s8.58 3.849 8.58 8.579-3.849 8.58-8.58 8.58zM263.515 135.73l-16.919-29.304a7.604 7.604 0 00-13.17 7.604l16.919 29.304c1.409 2.439 5.655 5.302 10.387 2.783 3.706-1.973 4.883-6.75 2.783-10.387zm11.723 20.305l-1.43-2.476a7.604 7.604 0 00-13.17 7.604l1.43 2.476c1.409 2.44 5.87 5.274 10.387 2.783 3.677-2.028 4.883-6.75 2.783-10.387z"></path>
  </symbol>
  <symbol xmlns="http://www.w3.org/2000/svg" viewBox="0 0 512 512" id="panini">
    <path d="M500.675 219.779a62.696 62.696 0 006.967-12.796c9.151-22.793 3.703-46.851-14.572-64.355-29.708-28.456-69.788-44.127-112.857-44.127-22.149 0-43.503 4.142-63.529 12.316-20.027-8.175-41.382-12.316-63.53-12.316-21.061 0-41.459 3.764-60.683 11.191-19.225-7.428-39.623-11.191-60.684-11.191-43.069 0-83.15 15.671-112.858 44.127C.655 160.133-4.793 184.19 4.358 206.983a62.724 62.724 0 006.962 12.789c-6.285 6.295-9.576 13.438-9.576 20.923 0 6.939 2.821 13.511 8.137 19.393-3.453 3.854-5.125 8.889-4.597 13.954.567 5.436 3.593 10.347 8.289 13.466l.105.07c5.391 3.628 12.548 6.241 20.142 7.357 7.968 1.181 16.215.798 23.803-1.094 5.526-1.343 9.854-1.65 12.868-.913 2.458.599 4.268 2.017 6.029 4.701 1.783 2.755 4.099 5.361 6.887 7.747.167.146.346.293.522.438l.812.745c.547.5 1.103.983 1.681 1.461 1.197.984 2.4 1.874 3.539 2.619a40.634 40.634 0 0015.962 6.27c11.631 1.888 23.444-1.51 32.412-9.309 1.933-1.68 4.22-2.436 6.627-2.17 2.469.271 4.666 1.561 6.347 3.72 7.356 9.471 18.206 15.355 29.763 16.145 11.575.79 23.03-3.585 31.41-12.021 1.845-1.854 4.087-2.782 6.514-2.714 2.437.079 4.659 1.178 6.424 3.175 7.892 8.932 19.05 14.053 30.612 14.052h.005c11.56 0 22.716-5.121 30.607-14.051 1.766-1.998 3.988-3.097 6.427-3.176 2.42-.067 4.668.858 6.508 2.711 8.385 8.439 19.854 12.822 31.41 12.024 11.56-.789 22.409-6.673 29.76-16.136 1.689-2.168 3.886-3.457 6.343-3.728 2.403-.261 4.702.487 6.634 2.165 8.972 7.802 20.784 11.197 32.438 9.309a40.567 40.567 0 0015.904-6.241 40.781 40.781 0 003.586-2.652c.569-.47 1.129-.956 1.737-1.514l.753-.689c.175-.144.35-.289.515-.433 2.787-2.385 5.104-4.992 6.858-7.706 1.789-2.726 3.6-4.144 6.067-4.744 3.006-.736 7.332-.429 12.815.904 7.633 1.902 15.881 2.286 23.84 1.105 4.625-.679 9.079-1.919 13.069-3.593 2.542 3.089 3.95 6.958 3.95 11.086v11.225c0 9.649-7.848 17.5-17.495 17.5H34.235c-9.647 0-17.495-7.851-17.495-17.5v-6.513a7.498 7.498 0 10-14.996 0v6.513c0 17.921 14.575 32.5 32.49 32.5h427.218c3.71 10.208 2.444 21.75-3.643 31.586-8.045 13-22.815 20.761-39.51 20.761h-324.6c-26.222 0-41.521-17.518-44.639-33.794-.78-4.068-4.71-6.728-8.776-5.954a7.501 7.501 0 00-5.952 8.778c2.395 12.499 9.379 23.986 19.665 32.347 10.966 8.912 24.696 13.623 39.702 13.623H418.3c21.924 0 41.46-10.417 52.26-27.865 7.546-12.194 9.765-26.341 6.536-39.481h.669c17.915 0 32.49-14.579 32.49-32.5v-11.225c0-7.216-2.448-14.186-6.767-19.816a18.234 18.234 0 003.226-8.579c.528-5.069-1.129-10.111-4.564-13.982 5.295-5.873 8.105-12.432 8.105-19.357 0-7.472-3.301-14.62-9.58-20.916zM36.01 280.097c-5.432-.799-10.389-2.562-13.986-4.981l-.144-.096c-.981-.652-1.579-1.552-1.68-2.533-.066-.633.049-1.585.952-2.504l.109-.11c.111-.112.21-.231.312-.349a77.337 77.337 0 007.296 3.931c5.838 2.752 12.37 5.042 19.396 6.836-4.045.45-8.246.399-12.255-.194zm-19.27-39.402c0-3.707 2.09-7.048 4.63-9.745 12.386 10.896 29.041 17.245 47.166 17.245h86.339c-8.088 11.361-33.657 21.734-67.709 21.734-41.503.001-70.426-15.407-70.426-29.234zm406.216 48.787c-1.014 1.568-2.343 3.046-4.065 4.515l-.086.075-.174.144c-.283.233-.559.467-.813.703l-.613.575a26.93 26.93 0 01-1.089.945c-.773.638-1.532 1.2-2.291 1.697a25.714 25.714 0 01-10.076 3.966c-7.33 1.187-14.498-.881-20.185-5.828-5.092-4.423-11.513-6.461-18.097-5.753-6.494.715-12.369 4.061-16.549 9.428-4.808 6.188-11.537 9.876-18.95 10.382-7.333.501-14.356-2.205-19.751-7.636-4.785-4.813-11.042-7.343-17.632-7.127-6.571.215-12.669 3.139-17.172 8.233-5.121 5.795-12 8.985-19.374 8.985h-.003c-7.374.001-14.255-3.19-19.377-8.985-4.502-5.095-10.599-8.019-17.169-8.233-6.591-.229-12.85 2.315-17.638 7.13-5.392 5.427-12.398 8.142-19.751 7.633-7.411-.506-14.139-4.193-18.952-10.391-4.174-5.359-10.049-8.704-16.555-9.42-6.564-.712-12.992 1.33-18.09 5.758-5.685 4.943-12.849 7.014-20.161 5.828a25.803 25.803 0 01-10.133-3.994 26.249 26.249 0 01-2.247-1.666 29.439 29.439 0 01-1.032-.893l-.711-.667c-.228-.212-.5-.44-.778-.669l-.172-.142a7.083 7.083 0 00-.089-.078c-1.722-1.471-3.053-2.948-4.094-4.558a29.59 29.59 0 00-3.654-4.531c.578.006 1.153.02 1.733.02 21.896 0 42.599-4.075 58.296-11.476 14.021-6.609 22.977-15.399 25.985-25.259h.271c3.008 9.86 11.964 18.65 25.985 25.259 15.697 7.4 36.401 11.476 58.297 11.476s42.599-4.075 58.297-11.476c14.021-6.609 22.977-15.399 25.985-25.259h.271c3.008 9.86 11.964 18.65 25.985 25.259 15.696 7.4 36.4 11.476 58.296 11.476.598 0 1.191-.015 1.787-.021a30.589 30.589 0 00-3.665 4.575zM188.29 248.195h135.42c-8.088 11.361-33.657 21.734-67.71 21.734s-59.622-10.373-67.71-21.734zM491.8 272.48c-.106 1.02-.724 1.952-1.777 2.651-.377.254-.777.496-1.184.735l-.052.032c-3.441 2.01-7.894 3.488-12.734 4.2-4.015.595-8.226.644-12.294.186 7.017-1.793 13.541-4.081 19.372-6.83a76.918 76.918 0 007.343-3.959c.104.12.204.241.316.356.96.977 1.079 1.969 1.01 2.629zm-66.966-2.55c-34.052 0-59.621-10.373-67.709-21.734h86.339c18.125 0 34.779-6.348 47.165-17.244 2.512 2.67 4.631 6.022 4.631 9.744 0 13.826-28.923 29.234-70.426 29.234zm68.894-68.534c-7.755 19.318-27.485 31.802-50.262 31.802H68.536c-22.777 0-42.507-12.483-50.262-31.802-6.785-16.903-2.663-34.821 11.028-47.934 26.903-25.77 63.299-39.961 102.486-39.961 14 0 27.669 1.825 40.829 5.43-11.842 6.52-22.664 14.449-32.319 23.697-6.124 5.866-10.851 12.521-14.051 19.777a7.501 7.501 0 006.857 10.529 7.5 7.5 0 006.864-4.476c2.403-5.45 6.004-10.495 10.703-14.996 12.733-12.196 27.744-21.869 44.615-28.748l.017-.008c18.242-7.436 37.706-11.205 57.853-11.205 15.365 0 30.298 2.193 44.59 6.513-11.098 6.317-21.274 13.884-30.387 22.614-4.442 4.254-8.488 10.636-12.026 18.97a7.5 7.5 0 006.898 10.434 7.5 7.5 0 006.904-4.57c2.699-6.359 5.671-11.2 8.594-13.999 12.03-11.524 26.134-20.818 41.919-27.622l.003-.001c18.995-8.187 39.37-12.337 60.563-12.337 39.186 0 75.583 14.191 102.486 39.961 13.69 13.113 17.813 31.031 11.028 47.932z"></path>
  </symbol>
  <symbol xmlns="http://www.w3.org/2000/svg" viewBox="0 0 512.001 512.001" id="pizza">
    <path d="M509.026 2.885A9.995 9.995 0 00498.642.583L83.289 148.68c-14.43-8.824-32.733-10.89-49.52-3.939-27.865 11.543-41.146 43.604-29.604 71.471 27.219 65.708 66.518 124.525 116.809 174.816s109.107 89.591 174.816 116.809a54.41 54.41 0 0020.861 4.164c21.475-.001 41.894-12.726 50.609-33.769 5.864-14.158 5.31-29.396-.299-42.48L511.462 13.238a10.002 10.002 0 00-2.436-10.353zM146.179 147.489l44.02-15.694a25.442 25.442 0 016.678 20.752c-.89 6.75-4.354 12.751-9.755 16.896-5.401 4.145-12.089 5.936-18.844 5.049-6.749-.889-12.749-4.352-16.894-9.754-3.819-4.977-5.636-11.049-5.205-17.249zm202.603 323.088c-7.322 17.678-27.664 26.103-45.338 18.779-128.04-53.035-227.763-152.759-280.8-280.799-3.547-8.563-3.547-17.994 0-26.558 3.547-8.563 10.216-15.232 18.779-18.779s17.995-3.547 26.558 0 15.232 10.216 18.779 18.779c22.701 54.807 55.481 103.865 97.429 145.813 41.948 41.948 91.006 74.727 145.813 97.429 17.678 7.321 26.103 27.66 18.78 45.336zm88.843-303.248a25.786 25.786 0 01-2.715-.192c-6.749-.889-12.749-4.353-16.893-9.754-4.145-5.401-5.938-12.094-5.05-18.843 1.835-13.934 14.66-23.776 28.599-21.944 4.3.566 8.337 2.234 11.78 4.771l-15.721 45.962zm22.368-65.406a45.478 45.478 0 00-15.817-5.156c-24.871-3.283-47.764 14.294-51.038 39.163-1.586 12.046 1.614 23.989 9.011 33.629 7.125 9.285 17.325 15.351 28.831 17.201l-19.876 58.119-22.858-17.54c-4.381-3.36-10.66-2.536-14.021 1.846-3.362 4.382-2.535 10.659 1.846 14.021l28.205 21.642-51.694 151.155a54.475 54.475 0 00-14.922-9.241c-105.98-43.899-188.52-126.439-232.417-232.417a54.66 54.66 0 00-5.609-10.26l26.779-9.548c.935 8.068 4.032 15.764 9.105 22.375 7.396 9.64 18.105 15.822 30.151 17.407 2.018.266 4.03.398 6.032.398 9.948 0 19.572-3.25 27.597-9.407 9.641-7.398 15.822-18.105 17.409-30.153a45.412 45.412 0 00-6.768-30.401l124.307-44.322 4.711 11.374a10.005 10.005 0 009.243 6.176 9.98 9.98 0 003.823-.764c5.102-2.113 7.525-7.964 5.412-13.066l-4.326-10.445 132.719-47.322-25.835 75.536z"></path>
    <path d="M108 268.276c-.03-.047-.113-.174-.145-.22-3.062-4.593-9.259-5.826-13.854-2.767-4.587 3.054-5.831 9.253-2.795 13.848a9.995 9.995 0 0013.789 2.958c4.646-2.987 5.991-9.174 3.005-13.819zm-15.209-24.843a473.307 473.307 0 01-26.036-53.147c-2.113-5.104-7.966-7.524-13.065-5.411-5.103 2.113-7.525 7.963-5.411 13.065a493.223 493.223 0 0027.14 55.401 9.997 9.997 0 0013.64 3.733c4.797-2.737 6.469-8.844 3.732-13.641zm220.142-115.446a45.819 45.819 0 00-5.983-.394c-22.717 0-42.087 17.005-45.055 39.555-3.274 24.868 14.293 47.764 39.161 51.038 1.982.262 3.995.394 5.983.394 22.716 0 42.086-17.005 45.055-39.557 3.273-24.867-14.294-47.762-39.161-51.036zm19.333 48.426c-1.664 12.637-12.509 22.166-25.227 22.166-1.118 0-2.253-.074-3.372-.222-13.935-1.835-23.777-14.664-21.943-28.599 1.664-12.636 12.508-22.164 25.226-22.164 1.118 0 2.253.074 3.372.222 13.934 1.836 23.778 14.664 21.944 28.597zm-21.935 75.961a45.83 45.83 0 00-5.983-.394c-22.717 0-42.087 17.005-45.055 39.556-1.587 12.047 1.613 23.989 9.01 33.63 7.396 9.64 18.104 15.822 30.151 17.409 1.981.261 3.993.392 5.98.392 22.717 0 42.088-17.005 45.057-39.557 3.275-24.866-14.293-47.76-39.16-51.036zm19.333 48.427c-1.664 12.637-12.51 22.166-25.228 22.166a25.96 25.96 0 01-3.37-.222c-6.75-.89-12.75-4.354-16.895-9.755-4.145-5.401-5.938-12.093-5.049-18.844 1.664-12.636 12.509-22.165 25.226-22.165 1.118 0 2.253.074 3.372.222 13.933 1.835 23.777 14.664 21.944 28.598zm-85.289-89.855l-30.736-4.047c-5.473-.727-10.499 3.133-11.22 8.608-.722 5.476 3.133 10.499 8.608 11.22l30.736 4.047c.443.059.883.087 1.318.087 4.941 0 9.239-3.663 9.901-8.695.723-5.475-3.131-10.499-8.607-11.22zm-15.585 73.797l-2.714-20.624c-.721-5.476-5.743-9.332-11.219-8.609-5.476.721-9.33 5.743-8.609 11.219l2.715 20.624c.662 5.033 4.959 8.696 9.901 8.696.435 0 .875-.028 1.317-.087 5.476-.721 9.33-5.743 8.609-11.219z"></path>
  </symbol>
  <symbol xmlns="http://www.w3.org/2000/svg" viewBox="0 0 512 512" id="plate">
    <path d="M256 117c-77.195 0-140 62.805-140 140s62.805 140 140 140 140-62.805 140-140-62.805-140-140-140zm0 260c-66.168 0-120-53.832-120-120s53.832-120 120-120 120 53.832 120 120-53.832 120-120 120zm0 0"></path>
    <path d="M502 343.785V10a9.996 9.996 0 00-6.766-9.46 10.003 10.003 0 00-11.14 3.339c-27.844 35.965-47.551 77.777-57.672 122.023a217.385 217.385 0 00-18.395-20.93C367.422 64.368 313.43 42 256 42s-111.418 22.363-152.027 62.973a206.99 206.99 0 00-3.973 4.109V10c0-5.523-4.477-10-10-10S80 4.477 80 10v120H60V10c0-5.523-4.477-10-10-10S40 4.477 40 10v120H20V10c0-5.523-4.477-10-10-10S0 4.477 0 10v130c0 15.777 7.535 30.61 20 39.988v163.797C13.926 399.551 10 462.598 10 472c0 22.055 17.945 40 40 40s40-17.945 40-40c0-7.04-2.2-44.148-5.855-85.762a217.644 217.644 0 0019.828 22.793C144.582 449.637 198.57 472 256 472s111.422-22.363 152.027-62.973a216.408 216.408 0 0031.375-39.691C434.832 417.37 432 464.02 432 472c0 22.055 17.945 40 40 40s40-17.945 40-40c0-9.402-3.926-72.45-10-128.215zM462 275h20v20h-20zm-19.922-124.727C448.082 111.91 461.734 75.027 482 42.035V255h-25.855l-14.141-14.137zM40 275h20v20H40zm38.27-125a30.143 30.143 0 01-13.278 15.98A9.995 9.995 0 0060 174.633V255H40v-80.363a9.996 9.996 0 00-4.992-8.657A30.16 30.16 0 0121.73 150zM50 492c-11.027 0-20-8.973-20-20 0-7.621 10-127.309 10-127.672V315h20v29.328c0 .363 10 120.05 10 127.672 0 11.031-8.973 20-20 20zm206-40c-77.496 0-144.574-45.441-176-111.074V179.988c12.426-9.347 19.945-24.117 19.996-39.836C135.598 92.734 192.273 62 256 62c70.117 0 131.703 37.203 166.074 92.902l-.074 90.09a10.01 10.01 0 002.93 7.082l17.07 17.07v46.426C417.074 394.563 343.125 452 256 452zm216 40c-11.027 0-20-8.973-20-20 0-7.621 10-127.309 10-127.672V315h20v29.328c0 .363 10 120.05 10 127.672 0 11.031-8.973 20-20 20zm0 0"></path>
    <path d="M257.281 336.992c-2.672.04-5.172 1.117-7.031 3.04s-2.86 4.437-2.813 7.109a9.984 9.984 0 002.981 6.98 9.957 9.957 0 007.012 2.871h.16c5.508-.094 9.93-4.644 9.84-10.16a9.95 9.95 0 00-2.98-6.973 9.998 9.998 0 00-7.169-2.867zM336 257c.012 30.582-17.031 58.059-44.469 71.7a9.954 9.954 0 00-5.031 5.769 9.929 9.929 0 00.52 7.633 9.948 9.948 0 008.96 5.558 9.82 9.82 0 004.442-1.05 100.144 100.144 0 0040.137-36.208C350.66 294.442 356 275.98 356 257c0-5.508-4.488-10-10-10-5.508 0-10 4.492-10 10zm0 0"></path>
  </symbol>
  <symbol xmlns="http://www.w3.org/2000/svg" viewBox="0 0 56.966 56.966" id="search">
    <path d="M55.146 51.887L41.588 37.786A22.926 22.926 0 0046.984 23c0-12.682-10.318-23-23-23s-23 10.318-23 23 10.318 23 23 23c4.761 0 9.298-1.436 13.177-4.162l13.661 14.208c.571.593 1.339.92 2.162.92.779 0 1.518-.297 2.079-.837a3.004 3.004 0 00.083-4.242zM23.984 6c9.374 0 17 7.626 17 17s-7.626 17-17 17-17-7.626-17-17 7.626-17 17-17z"></path>
  </symbol>
  <symbol xmlns="http://www.w3.org/2000/svg" viewBox="0 0 433.664 433.664" id="stats">
    <path d="M258.048 37.658h-82.944c-8.483 0-15.36 6.877-15.36 15.36v327.526c0 8.483 6.877 15.36 15.36 15.36h82.944c8.483 0 15.36-6.877 15.36-15.36V53.018c0-8.484-6.877-15.36-15.36-15.36zm160.256 190.976H335.36c-8.483 0-15.36 6.877-15.36 15.36v136.653c0 8.483 6.877 15.36 15.36 15.36h82.944c8.483 0 15.36-6.877 15.36-15.36V243.994c0-8.484-6.877-15.36-15.36-15.36zm-320-68.608H15.36c-8.483 0-15.36 6.877-15.36 15.36v205.056c0 8.483 6.877 15.36 15.36 15.36h82.944c8.483 0 15.36-6.877 15.36-15.36V175.386c0-8.483-6.877-15.36-15.36-15.36z"></path>
  </symbol>
  <symbol xmlns="http://www.w3.org/2000/svg" viewBox="0 0 511.953 511.953" id="tacos">
    <path d="M398.885 226.862a8.534 8.534 0 00-11.934 12.2l12.462 12.196a8.534 8.534 0 1011.933-12.199l-12.461-12.197zm-62.308 60.979a8.534 8.534 0 00-11.934 12.2l12.463 12.196a8.534 8.534 0 1011.933-12.199l-12.462-12.197zm6.229-54.879a8.534 8.534 0 00-11.934 12.2l12.462 12.196a8.534 8.534 0 1011.933-12.199l-12.461-12.197zm-56.079 103.663a8.533 8.533 0 00-11.933 12.2l12.463 12.196a8.534 8.534 0 1011.933-12.199l-12.463-12.197zm-62.304 60.983a8.534 8.534 0 00-14.257 3.963 8.533 8.533 0 002.315 8.229l12.459 12.196a8.534 8.534 0 0014.257-3.963 8.533 8.533 0 00-2.315-8.229l-12.459-12.196zm6.225-54.887a8.534 8.534 0 00-11.934 12.2l12.463 12.196a8.534 8.534 0 1011.933-12.199l-12.462-12.197z"></path>
    <path d="M500.144 155.212a40.014 40.014 0 00-15.396-9.363 51.855 51.855 0 007.696-26.879 46.998 46.998 0 00-14.112-33.883 48.157 48.157 0 00-29.05-13.467 50.24 50.24 0 00-14.758-29.408 54.408 54.408 0 00-53.567-12.467 47.114 47.114 0 00-8.942-12.117c-20.675-18.95-52.649-18.106-72.296 1.908l-31.154 30.488-.001.002L7.981 305.037a26.124 26.124 0 00-7.217 12.554c-.08.309-.089.622-.157.933-.013.091-.035.177-.045.268a23.68 23.68 0 001.811 15.457c7.121 14.4 26.654 42.367 79.258 93.846 52.583 51.463 81.142 70.567 95.842 77.533a24.875 24.875 0 0010.625 2.371 23.896 23.896 0 008.942-1.708 26.004 26.004 0 009.804-6.117l263.407-257.776 28.339-27.729a43.98 43.98 0 0013.363-31.133 39.296 39.296 0 00-11.809-28.324zM303.998 39.229l46.146 75.529a155.344 155.344 0 019.129 17.112c.958 2.139 1.785 4.313 2.644 6.48a191.543 191.543 0 00-64.94-.767 216.036 216.036 0 00-115.65 58.792c-47.986 45.336-70.352 111.527-59.7 176.677a180.88 180.88 0 01-25.9-13.082l-75.131-43.4L303.998 39.229zm75.338 96.688c-1.312-3.697-2.861-7.391-4.509-11.072a172.085 172.085 0 00-10.138-19.012L350.657 82.87a31.95 31.95 0 0133.178 6.792c5.737 5.619 8.97 13.311 8.97 21.341s-3.231 15.722-8.966 21.343v-.001a30.817 30.817 0 01-4.503 3.572zM93.564 415.895a540.19 540.19 0 01-68.653-77.128l62.111 35.878a193.129 193.129 0 0036.579 17.417 8.55 8.55 0 002.817.483l.093-.015a167.31 167.31 0 0016.332 36.794l34.074 56.611c-14.027-8.402-39.737-27.356-83.353-70.04zm361.929-182.933l-.001.002-258.596 253.067-39.428-65.506a150.96 150.96 0 01-16.746-40.054c-15.321-59.325 4.813-125.192 52.538-171.895a198.826 198.826 0 01106.408-54.138 173.237 173.237 0 0167.712 2.263 156.468 156.468 0 0142.967 16.825l66.638 38.406-21.492 21.03zm-46.895-111.147a26.788 26.788 0 0115.737 7.485c9.421 9.004 10.396 23.716 2.244 33.884l-7.715-4.446a170.573 170.573 0 00-25.682-11.989c.866-.735 1.775-1.402 2.595-2.202a46.713 46.713 0 0012.821-22.732zm80.708 77.52l-47.763-27.527c11.901-17.06 9.668-40.234-5.271-54.708a43.787 43.787 0 00-26.842-12.355 46.813 46.813 0 00-13.658-27.279c-14.377-14.037-35.906-17.786-54.182-9.435l-24.75-40.506c13.133-9.588 31.195-8.628 43.237 2.299a29.64 29.64 0 017.875 13.212 8.536 8.536 0 0011.875 5.366 37.879 37.879 0 0142.758 6.008 33.659 33.659 0 0110.083 25.304 8.534 8.534 0 009.017 8.759 32.069 32.069 0 0124.713 8.812 30.054 30.054 0 018.979 21.683 35.66 35.66 0 01-10.929 25.196c-.456.488-.949.941-1.475 1.354a8.532 8.532 0 005.858 15.429 24.013 24.013 0 0119.375 6.462 22.351 22.351 0 016.679 16.129 25.915 25.915 0 01-5.579 15.797z"></path>
  </symbol>
  <symbol xmlns="http://www.w3.org/2000/svg" viewBox="-42 0 512 512.002" id="user">
    <path d="M210.352 246.633c33.882 0 63.222-12.153 87.195-36.13 23.973-23.972 36.125-53.304 36.125-87.19 0-33.876-12.152-63.211-36.129-87.192C273.566 12.152 244.23 0 210.352 0c-33.887 0-63.22 12.152-87.192 36.125s-36.129 53.309-36.129 87.188c0 33.886 12.156 63.222 36.133 87.195 23.977 23.969 53.313 36.125 87.188 36.125zm215.777 147.07c-.692-9.976-2.09-20.86-4.149-32.351-2.078-11.579-4.753-22.524-7.957-32.528-3.308-10.34-7.808-20.55-13.37-30.336-5.774-10.156-12.555-19-20.165-26.277-7.957-7.613-17.699-13.734-28.965-18.2-11.226-4.44-23.668-6.69-36.976-6.69-5.227 0-10.281 2.144-20.043 8.5a2711.03 2711.03 0 01-20.879 13.46c-6.707 4.274-15.793 8.278-27.016 11.903-10.949 3.543-22.066 5.34-33.039 5.34-10.972 0-22.086-1.797-33.047-5.34-11.21-3.622-20.296-7.625-26.996-11.899a2853.13 2853.13 0 01-20.898-13.469c-9.75-6.355-14.809-8.5-20.035-8.5-13.313 0-25.75 2.254-36.973 6.7-11.258 4.457-21.004 10.578-28.969 18.199-7.605 7.281-14.39 16.12-20.156 26.273-5.558 9.785-10.058 19.992-13.371 30.34-3.2 10.004-5.875 20.945-7.953 32.524-2.059 11.476-3.457 22.363-4.149 32.363A438.821 438.821 0 000 423.949c0 26.727 8.496 48.363 25.25 64.32 16.547 15.747 38.441 23.735 65.066 23.735h246.532c26.625 0 48.511-7.984 65.062-23.734 16.758-15.946 25.254-37.586 25.254-64.325-.004-10.316-.351-20.492-1.035-30.242zm0 0"></path>
  </symbol>
</svg>