<svg width="0" height="0" class="hidden">
  <symbol xmlns="http://www.w3.org/2000/svg" viewBox="0 0 64 64" id="boisson">
    <path d="M24 46h2v2h-2zm4-2h2v2h-2zm12-15h2v2h-2zm-3 4h2v2h-2zm3 3h2v2h-2z"></path>
    <path d="M39 2h-4a1 1 0 00-1 1v11H15a1 1 0 00-1 1v6a1 1 0 001 1h2.1l3.91 39.1a1 1 0 001 .9H42a1 1 0 001-.9L46.905 22H49a1 1 0 001-1v-6a1 1 0 00-1-1h-9V3a1 1 0 00-1-1zm-3 2h2v10h-2zm5.1 56H22.905l-3.076-30.761A17.458 17.458 0 0025 30a14.892 14.892 0 007.429-1.7A13.01 13.01 0 0139 26.8a13.068 13.068 0 015.322.926zm3.433-34.334A15.33 15.33 0 0039 24.8a14.892 14.892 0 00-7.429 1.7A13.01 13.01 0 0125 28a15.36 15.36 0 01-5.39-.947L19.105 22H44.9zM48 16v4H16v-4z"></path>
    <path d="M28 41a2.9 2.9 0 003-3v-2a2.9 2.9 0 00-3-3h-2a2.9 2.9 0 00-3 3v2a2.9 2.9 0 003 3zm-3-3v-2a.91.91 0 011-1h2a.91.91 0 011 1v2a.91.91 0 01-1 1h-2a.91.91 0 01-1-1zm10 3a2.9 2.9 0 00-3 3v2a2.9 2.9 0 003 3h2a2.9 2.9 0 003-3v-2a2.9 2.9 0 00-3-3zm3 3v2a.91.91 0 01-1 1h-2a.91.91 0 01-1-1v-2a.91.91 0 011-1h2a.91.91 0 011 1zm-8 6h-2a2.9 2.9 0 00-3 3v2a2.9 2.9 0 003 3h2a2.9 2.9 0 003-3v-2a2.9 2.9 0 00-3-3zm1 5a.91.91 0 01-1 1h-2a.91.91 0 01-1-1v-2a.91.91 0 011-1h2a.91.91 0 011 1z"></path>
  </symbol>
  <symbol xmlns="http://www.w3.org/2000/svg" viewBox="0 0 384 384" id="delete">
    <path d="M64 341.333C64 364.907 83.093 384 106.667 384h170.667C300.907 384 320 364.907 320 341.333v-256H64v256zm202.667-320L245.333 0H138.667l-21.334 21.333H42.667V64h298.666V21.333z"></path>
  </symbol>
  <symbol xmlns="http://www.w3.org/2000/svg" viewBox="0 0 480.005 480.005" id="dessert">
    <path d="M112.002 208.005h16v16h-16zm40-16h16v16h-16zm48 16h16v16h-16zm48-16h16v16h-16zm56 0h16v16h-16zm40 16h16v16h-16zm-96-160h16v16h-16zm-64 64h16v16h-16zm40 16h16v16h-16zm72-16h16v16h-16z"></path>
    <path d="M403.514 240.181c17.819-19.562 16.406-49.865-3.156-67.684a47.91 47.91 0 00-32.356-12.492h-20.32c17.717-19.66 16.142-49.96-3.518-67.678a47.918 47.918 0 00-32.162-12.322h-.552c-4.056-31.967-31.225-55.946-63.448-56h-10.968a12.801 12.801 0 01-12.8-9.6 12.27 12.27 0 010-4.8 8.083 8.083 0 00-1.84-6.656 8.433 8.433 0 00-6.392-2.944c-20.547-.286-38.924 12.736-45.464 32.216a48.52 48.52 0 006.624 44 47.672 47.672 0 003.12 3.8h-12.28c-26.465-.045-47.957 21.372-48.002 47.838a47.923 47.923 0 0012.322 32.162h-20.32c-26.461-.051-47.953 21.359-48.004 47.82a47.91 47.91 0 0012.492 32.356c-25.055 1.838-44.455 22.685-44.488 47.808a47.41 47.41 0 0020.88 39.304l51.568 147.336a8 8 0 007.552 5.36h256a8 8 0 007.552-5.36l51.568-147.336a47.41 47.41 0 0020.88-39.304c-.024-25.129-19.426-45.986-44.488-47.824zM185.762 37.205a31.2 31.2 0 0122.68-20.224c0 .16.056.32.08.48 2.918 13.348 14.85 22.783 28.512 22.544h10.968c23.413.029 43.401 16.92 47.336 40h-79.336a32.144 32.144 0 01-25.904-13.2 32.684 32.684 0 01-4.336-29.6zm-17.76 58.8h144c17.673 0 32 14.327 32 32s-14.327 32-32 32h-144c-17.673 0-32-14.327-32-32s14.327-32 32-32zm-56 80h256c17.673 0 32 14.327 32 32s-14.327 32-32 32h-256c-17.673 0-32-14.327-32-32s14.327-32 32-32zm5.68 288L65.09 313.741a26.679 26.679 0 0116.8-7.552 27.073 27.073 0 0120.8 7.752l1.856 1.856 22.168 148.208h-9.032zm25.216 0l-22.4-149.2 4.616-4.616c10.432-10.401 27.312-10.401 37.744 0l5.304 5.288 7.424 148.528h-32.688zm89.104 0h-40.384l-7.448-148.856 4.96-4.96c10.432-10.401 27.312-10.401 37.744 0l5.128 5.128v148.688zm56.384 0h-40.384V315.317l5.128-5.128c10.432-10.401 27.312-10.401 37.744 0l4.96 4.96-7.448 148.856zm16.032 0l7.424-148.528 5.288-5.288c10.432-10.401 27.312-10.401 37.744 0l4.616 4.616-22.384 149.2h-32.688zm57.904 0h-9.032l22.232-148.208 1.856-1.856c10.34-10.35 27.087-10.439 37.536-.2l-52.592 150.264zm65.376-160.056l-.096-.088a42.893 42.893 0 00-5.384-4.856c-.304-.232-.6-.472-.904-.696a42.645 42.645 0 00-5.96-3.608c-.376-.192-.752-.368-1.144-.552a42.211 42.211 0 00-6.584-2.4c-.32-.096-.648-.152-.976-.232a42.757 42.757 0 00-7.376-1.24 42.812 42.812 0 00-3.032-.104c-1.008 0-1.928.192-2.896.256-1.264.088-2.52.152-3.768.344-1.4.224-2.752.592-4.12.952-1.224.32-2.448.584-3.64 1.008a42.127 42.127 0 00-4.376 1.992c-.944.464-1.92.8-2.824 1.36a42.657 42.657 0 00-6.552 4.712l-1.88-1.88c-16.683-16.639-43.685-16.639-60.368 0l-1.816 1.776-1.816-1.816c-16.683-16.639-43.685-16.639-60.368 0l-1.816 1.816-1.816-1.816c-16.683-16.639-43.685-16.639-60.368 0l-1.816 1.816-1.816-1.816c-16.683-16.639-43.685-16.639-60.368 0l-1.88 1.88a42.033 42.033 0 00-38.584-9.28c-.328.08-.656.136-.976.232a42.211 42.211 0 00-6.584 2.4c-.392.184-.8.36-1.144.552a42.645 42.645 0 00-5.96 3.608c-.304.224-.6.464-.904.696a42.963 42.963 0 00-5.384 4.856l-.096.088a31.393 31.393 0 01-4.304-15.904c0-17.673 14.327-32 32-32h320c17.673 0 32 14.327 32 32a31.396 31.396 0 01-4.304 15.944z"></path>
  </symbol>
  <symbol xmlns="http://www.w3.org/2000/svg" viewBox="0 0 240.811 240.811" id="dropdown">
    <path d="M220.088 57.667l-99.671 99.695-99.671-99.707a12.147 12.147 0 00-17.191 0c-4.74 4.752-4.74 12.451 0 17.203l108.261 108.297c4.74 4.752 12.439 4.752 17.179 0L237.256 74.859c4.74-4.752 4.74-12.463 0-17.215-4.728-4.729-12.428-4.729-17.168.023z"></path>
  </symbol>
  <symbol xmlns="http://www.w3.org/2000/svg" viewBox="0 0 383.947 383.947" id="edit">
    <path d="M0 303.947v80h80l236.053-236.054-80-80zM377.707 56.053L327.893 6.24c-8.32-8.32-21.867-8.32-30.187 0l-39.04 39.04 80 80 39.04-39.04c8.321-8.32 8.321-21.867.001-30.187z"></path>
  </symbol>
  <symbol xmlns="http://www.w3.org/2000/svg" viewBox="0 0 512 512" id="hamburger">
    <path d="M383.071 148.928c-3.905-3.904-10.237-3.904-14.143 0l-20 20c-3.905 3.905-3.905 10.237 0 14.143 3.907 3.906 10.238 3.905 14.143 0l20-20c3.905-3.905 3.905-10.237 0-14.143zm-240 0c-3.905-3.904-10.237-3.904-14.143 0l-20 20c-3.905 3.905-3.905 10.237 0 14.143 3.907 3.906 10.238 3.905 14.143 0l20-20c3.905-3.905 3.905-10.237 0-14.143zm190-40c-3.905-3.904-10.237-3.904-14.143 0l-20 20c-3.905 3.905-3.905 10.237 0 14.143 3.907 3.906 10.238 3.905 14.143 0l20-20c3.905-3.905 3.905-10.237 0-14.143zm-120 0c-3.905-3.904-10.237-3.904-14.143 0l-20 20c-3.905 3.905-3.905 10.237 0 14.143 3.907 3.906 10.238 3.905 14.143 0l20-20c3.905-3.905 3.905-10.237 0-14.143zm50 40c-3.905-3.904-10.237-3.904-14.143 0l-20 20c-3.905 3.905-3.905 10.237 0 14.143 3.907 3.906 10.238 3.905 14.143 0l20-20c3.905-3.905 3.905-10.237 0-14.143z"></path>
    <path d="M512 356c0-16.542-13.458-30-30-30h-10v-32.23c.412-.358.832-.701 1.237-1.07 6.491-5.917 20.049-9.7 28.889-9.812 5.522-.069 9.943-4.603 9.873-10.125-.069-5.479-4.532-9.874-9.997-9.874l-.128.001c-8.581.108-19.982 2.386-29.874 7.063V243.74c12.176-4.983 20.271-17.519 18.533-31.435C478.737 117.496 397.686 46 302 46h-92c-95.686 0-176.737 71.496-188.533 166.301-1.733 13.875 6.307 26.437 18.533 31.44v25.771c-9.929-4.498-21.357-6.748-30.131-6.622-5.522.072-9.94 4.608-9.868 10.131.072 5.478 4.535 9.868 9.997 9.868l.134-.001c8.942-.137 22.822 3.599 29.592 9.774.09.083.186.161.277.243V326H30c-16.574 0-30 13.424-30 30 0 14.865 10.87 27.233 25.078 29.589-2.337 6.169-2.505 12.909-.338 19.313C37.134 441.446 71.397 466 110 466h292c38.603 0 72.866-24.554 85.263-61.104 2.165-6.398 1.997-13.135-.339-19.303C500.864 383.301 512 371.17 512 356zM41.313 214.774C51.867 129.959 124.386 66 210 66h92c85.614 0 158.133 63.959 168.687 148.779.722 5.779-3.787 10.811-9.356 11.184-.066.004-.132.01-.198.016a5.866 5.866 0 01-.513.021H51.38c-5.89 0-10.82-5.186-10.067-11.226zm371.925 63.146c-21.975-20.039-51.502-20.039-73.477 0-14.349 13.084-32.175 13.084-46.523 0-21.975-20.039-51.502-20.039-73.477 0-14.349 13.084-32.175 13.084-46.523 0-21.975-20.038-51.502-20.04-73.479.002-12.161 11.098-26.73 12.859-39.759 5.053V246h392v37.555c-12.759 7.099-26.953 5.134-38.762-5.635zM452 305.243V326H60v-21.057c5.407 1.871 10.956 2.807 16.5 2.806 12.905 0 25.776-5.048 36.739-15.051 14.348-13.084 32.175-13.084 46.523 0 21.975 20.041 51.503 20.04 73.477 0 14.349-13.084 32.176-13.084 46.523 0 21.975 20.041 51.503 20.04 73.477 0 14.348-13.085 32.175-13.083 46.523 0 15.297 13.952 34.503 18.24 52.238 12.545zm16.32 93.236C458.68 426.902 432.028 446 402 446H110c-30.028 0-56.68-19.098-66.317-47.515C41.608 392.355 46.901 386 53.46 386h405.08c6.583 0 11.842 6.385 9.78 12.479zM482 366H30c-5.514 0-10-4.486-10-10 0-5.521 4.479-10 10-10h452c5.514 0 10 4.486 10 10 0 5.521-4.479 10-10 10z"></path>
  </symbol>
  <symbol xmlns="http://www.w3.org/2000/svg" viewBox="0 0 512 512" id="home">
    <path d="M498.195 222.695l-.035-.035L289.305 13.813C280.402 4.905 268.566 0 255.977 0c-12.59 0-24.426 4.902-33.332 13.809L13.898 222.55c-.07.07-.14.144-.21.215-18.282 18.386-18.25 48.218.09 66.558 8.378 8.383 19.445 13.238 31.277 13.746.48.047.965.07 1.453.07h8.324v153.7C54.832 487.254 79.578 512 110 512h81.71c8.282 0 15-6.715 15-15V376.5c0-13.879 11.29-25.168 25.169-25.168h48.195c13.88 0 25.168 11.29 25.168 25.168V497c0 8.285 6.715 15 15 15h81.711c30.422 0 55.168-24.746 55.168-55.16v-153.7h7.719c12.586 0 24.422-4.902 33.332-13.808 18.36-18.371 18.367-48.254.023-66.637zm0 0"></path>
  </symbol>
  <symbol xmlns="http://www.w3.org/2000/svg" viewBox="0 0 512 512" id="hot-food">
    <path d="M15.1 331c19.51 46.56 56.78 84.77 104.9 104.83V466c0 8.28 6.72 15 15 15h242c8.28 0 15-6.72 15-15v-30.17c48.12-20.06 85.39-58.27 104.9-104.83zM497 241H15c-8.28 0-15 6.72-15 15 0 15.38 1.82 30.46 5.3 45h501.4c3.48-14.54 5.3-29.62 5.3-45 0-8.28-6.72-15-15-15zm-341.606-64.393c-5.858-5.858-5.858-15.355 0-21.213 10.718-10.719 10.719-28.067 0-38.787-22.391-22.391-22.391-58.822 0-81.213 5.857-5.858 15.355-5.858 21.213 0s5.858 15.355 0 21.213c-10.718 10.719-10.719 28.067 0 38.787 22.391 22.391 22.391 58.822 0 81.213-5.857 5.857-15.356 5.858-21.213 0zm90 0c-5.858-5.858-5.858-15.355 0-21.213 10.718-10.719 10.719-28.067 0-38.787-22.391-22.391-22.391-58.822 0-81.213 5.857-5.858 15.355-5.858 21.213 0s5.858 15.355 0 21.213c-10.718 10.719-10.719 28.067 0 38.787 22.391 22.391 22.391 58.822 0 81.213-5.857 5.857-15.356 5.858-21.213 0zm90 0c-5.858-5.858-5.858-15.355 0-21.213 10.717-10.718 10.719-28.067 0-38.787-22.391-22.391-22.391-58.822 0-81.213 5.857-5.858 15.355-5.858 21.213 0s5.858 15.355 0 21.213c-10.717 10.718-10.719 28.067 0 38.787 22.391 22.391 22.391 58.822 0 81.213-5.857 5.857-15.356 5.858-21.213 0z"></path>
  </symbol>
  <symbol xmlns="http://www.w3.org/2000/svg" viewBox="0 0 512.18 512.18" id="list">
    <path d="M448.18 80h-320c-17.673 0-32 14.327-32 32s14.327 32 32 32h320c17.673 0 32-14.327 32-32s-14.327-32-32-32zm-384 32a32.004 32.004 0 00-9.44-22.56c-12.481-12.407-32.639-12.407-45.12 0A31.996 31.996 0 00.18 112a27.243 27.243 0 000 6.24 28.851 28.851 0 001.76 6.08 37.139 37.139 0 003.04 5.44 29.275 29.275 0 004 4.96 28.322 28.322 0 004.8 3.84 26.073 26.073 0 005.44 3.04 26.412 26.412 0 006.72 2.4 28.06 28.06 0 006.24 0 31.999 31.999 0 0022.56-9.28 29.275 29.275 0 004-4.96 37.139 37.139 0 003.04-5.44 29.714 29.714 0 002.4-6.08 27.243 27.243 0 000-6.24zm0 144a27.356 27.356 0 000-6.24 25.927 25.927 0 00-2.4-5.92 31.985 31.985 0 00-3.04-5.6 23.044 23.044 0 00-4-4.8c-12.481-12.407-32.639-12.407-45.12 0A31.996 31.996 0 00.18 256a35.512 35.512 0 002.4 12.32 35.802 35.802 0 002.88 5.44 30.727 30.727 0 004.16 4.8 23.363 23.363 0 004.8 4 25.958 25.958 0 005.44 3.04 27.212 27.212 0 006.08 1.76c2.047.459 4.142.674 6.24.64 2.073.239 4.167.239 6.24 0a25.968 25.968 0 005.92-1.76 26.72 26.72 0 005.6-3.04 23.363 23.363 0 004.8-4 23.363 23.363 0 004-4.8 25.73 25.73 0 003.04-5.44 27.07 27.07 0 002.4-6.72 26.473 26.473 0 000-6.24zm0 144a27.471 27.471 0 000-6.24 27.238 27.238 0 00-2.4-6.08 37.139 37.139 0 00-3.04-5.44 23.363 23.363 0 00-4-4.8c-12.481-12.407-32.639-12.407-45.12 0a23.363 23.363 0 00-4 4.8 37.139 37.139 0 00-3.04 5.44 26.224 26.224 0 00-1.76 6.08A27.499 27.499 0 00.18 400a32.004 32.004 0 009.44 22.56 23.363 23.363 0 004.8 4 25.958 25.958 0 005.44 3.04 27.212 27.212 0 006.08 1.76c2.047.459 4.142.674 6.24.64 2.073.239 4.167.239 6.24 0a25.968 25.968 0 005.92-1.76 26.72 26.72 0 005.6-3.04 23.363 23.363 0 004.8-4 23.363 23.363 0 004-4.8 25.617 25.617 0 003.04-5.44 27.164 27.164 0 002.4-6.72 26.473 26.473 0 000-6.24zm416-176h-352c-17.673 0-32 14.327-32 32s14.327 32 32 32h352c17.673 0 32-14.327 32-32s-14.327-32-32-32zm-144 144h-208c-17.673 0-32 14.327-32 32 0 17.673 14.327 32 32 32h208c17.673 0 32-14.327 32-32 0-17.673-14.327-32-32-32z"></path>
  </symbol>
  <symbol xmlns="http://www.w3.org/2000/svg" viewBox="0 0 512.005 512" id="logout">
    <path d="M320 277.336c-11.797 0-21.332 9.559-21.332 21.332v85.336c0 11.754-9.559 21.332-21.336 21.332h-64v-320c0-18.219-11.605-34.496-29.055-40.555l-6.316-2.113h99.371c11.777 0 21.336 9.578 21.336 21.336v64c0 11.773 9.535 21.332 21.332 21.332s21.332-9.559 21.332-21.332v-64c0-35.285-28.715-64-64-64H48c-.812 0-1.492.363-2.281.469-1.028-.086-2.008-.47-3.051-.47C19.137.004 0 19.138 0 42.669v384c0 18.219 11.605 34.496 29.055 40.555L157.44 510.02a44.195 44.195 0 0013.227 1.984c23.531 0 42.664-19.137 42.664-42.668v-21.332h64c35.285 0 64-28.715 64-64v-85.336c0-11.773-9.535-21.332-21.332-21.332zm0 0"></path>
    <path d="M505.75 198.254l-85.336-85.332a21.33 21.33 0 00-23.25-4.633C389.207 111.598 384 119.383 384 128.004v64h-85.332c-11.777 0-21.336 9.555-21.336 21.332 0 11.777 9.559 21.332 21.336 21.332H384v64c0 8.621 5.207 16.406 13.164 19.715a21.335 21.335 0 0023.25-4.63l85.336-85.335c8.34-8.34 8.34-21.824 0-30.164zm0 0"></path>
  </symbol>
  <symbol xmlns="http://www.w3.org/2000/svg" viewBox="0 0 512.001 512.001" id="pizza">
    <path d="M509.026 2.885A9.995 9.995 0 00498.642.583L83.289 148.68c-14.43-8.824-32.733-10.89-49.52-3.939-27.865 11.543-41.146 43.604-29.604 71.471 27.219 65.708 66.518 124.525 116.809 174.816s109.107 89.591 174.816 116.809a54.41 54.41 0 0020.861 4.164c21.475-.001 41.894-12.726 50.609-33.769 5.864-14.158 5.31-29.396-.299-42.48L511.462 13.238a10.002 10.002 0 00-2.436-10.353zM146.179 147.489l44.02-15.694a25.442 25.442 0 016.678 20.752c-.89 6.75-4.354 12.751-9.755 16.896-5.401 4.145-12.089 5.936-18.844 5.049-6.749-.889-12.749-4.352-16.894-9.754-3.819-4.977-5.636-11.049-5.205-17.249zm202.603 323.088c-7.322 17.678-27.664 26.103-45.338 18.779-128.04-53.035-227.763-152.759-280.8-280.799-3.547-8.563-3.547-17.994 0-26.558 3.547-8.563 10.216-15.232 18.779-18.779s17.995-3.547 26.558 0 15.232 10.216 18.779 18.779c22.701 54.807 55.481 103.865 97.429 145.813 41.948 41.948 91.006 74.727 145.813 97.429 17.678 7.321 26.103 27.66 18.78 45.336zm88.843-303.248a25.786 25.786 0 01-2.715-.192c-6.749-.889-12.749-4.353-16.893-9.754-4.145-5.401-5.938-12.094-5.05-18.843 1.835-13.934 14.66-23.776 28.599-21.944 4.3.566 8.337 2.234 11.78 4.771l-15.721 45.962zm22.368-65.406a45.478 45.478 0 00-15.817-5.156c-24.871-3.283-47.764 14.294-51.038 39.163-1.586 12.046 1.614 23.989 9.011 33.629 7.125 9.285 17.325 15.351 28.831 17.201l-19.876 58.119-22.858-17.54c-4.381-3.36-10.66-2.536-14.021 1.846-3.362 4.382-2.535 10.659 1.846 14.021l28.205 21.642-51.694 151.155a54.475 54.475 0 00-14.922-9.241c-105.98-43.899-188.52-126.439-232.417-232.417a54.66 54.66 0 00-5.609-10.26l26.779-9.548c.935 8.068 4.032 15.764 9.105 22.375 7.396 9.64 18.105 15.822 30.151 17.407 2.018.266 4.03.398 6.032.398 9.948 0 19.572-3.25 27.597-9.407 9.641-7.398 15.822-18.105 17.409-30.153a45.412 45.412 0 00-6.768-30.401l124.307-44.322 4.711 11.374a10.005 10.005 0 009.243 6.176 9.98 9.98 0 003.823-.764c5.102-2.113 7.525-7.964 5.412-13.066l-4.326-10.445 132.719-47.322-25.835 75.536z"></path>
    <path d="M108 268.276c-.03-.047-.113-.174-.145-.22-3.062-4.593-9.259-5.826-13.854-2.767-4.587 3.054-5.831 9.253-2.795 13.848a9.995 9.995 0 0013.789 2.958c4.646-2.987 5.991-9.174 3.005-13.819zm-15.209-24.843a473.307 473.307 0 01-26.036-53.147c-2.113-5.104-7.966-7.524-13.065-5.411-5.103 2.113-7.525 7.963-5.411 13.065a493.223 493.223 0 0027.14 55.401 9.997 9.997 0 0013.64 3.733c4.797-2.737 6.469-8.844 3.732-13.641zm220.142-115.446a45.819 45.819 0 00-5.983-.394c-22.717 0-42.087 17.005-45.055 39.555-3.274 24.868 14.293 47.764 39.161 51.038 1.982.262 3.995.394 5.983.394 22.716 0 42.086-17.005 45.055-39.557 3.273-24.867-14.294-47.762-39.161-51.036zm19.333 48.426c-1.664 12.637-12.509 22.166-25.227 22.166-1.118 0-2.253-.074-3.372-.222-13.935-1.835-23.777-14.664-21.943-28.599 1.664-12.636 12.508-22.164 25.226-22.164 1.118 0 2.253.074 3.372.222 13.934 1.836 23.778 14.664 21.944 28.597zm-21.935 75.961a45.83 45.83 0 00-5.983-.394c-22.717 0-42.087 17.005-45.055 39.556-1.587 12.047 1.613 23.989 9.01 33.63 7.396 9.64 18.104 15.822 30.151 17.409 1.981.261 3.993.392 5.98.392 22.717 0 42.088-17.005 45.057-39.557 3.275-24.866-14.293-47.76-39.16-51.036zm19.333 48.427c-1.664 12.637-12.51 22.166-25.228 22.166a25.96 25.96 0 01-3.37-.222c-6.75-.89-12.75-4.354-16.895-9.755-4.145-5.401-5.938-12.093-5.049-18.844 1.664-12.636 12.509-22.165 25.226-22.165 1.118 0 2.253.074 3.372.222 13.933 1.835 23.777 14.664 21.944 28.598zm-85.289-89.855l-30.736-4.047c-5.473-.727-10.499 3.133-11.22 8.608-.722 5.476 3.133 10.499 8.608 11.22l30.736 4.047c.443.059.883.087 1.318.087 4.941 0 9.239-3.663 9.901-8.695.723-5.475-3.131-10.499-8.607-11.22zm-15.585 73.797l-2.714-20.624c-.721-5.476-5.743-9.332-11.219-8.609-5.476.721-9.33 5.743-8.609 11.219l2.715 20.624c.662 5.033 4.959 8.696 9.901 8.696.435 0 .875-.028 1.317-.087 5.476-.721 9.33-5.743 8.609-11.219z"></path>
  </symbol>
  <symbol xmlns="http://www.w3.org/2000/svg" viewBox="0 0 512 512" id="plate">
    <path d="M256 117c-77.195 0-140 62.805-140 140s62.805 140 140 140 140-62.805 140-140-62.805-140-140-140zm0 260c-66.168 0-120-53.832-120-120s53.832-120 120-120 120 53.832 120 120-53.832 120-120 120zm0 0"></path>
    <path d="M502 343.785V10a9.996 9.996 0 00-6.766-9.46 10.003 10.003 0 00-11.14 3.339c-27.844 35.965-47.551 77.777-57.672 122.023a217.385 217.385 0 00-18.395-20.93C367.422 64.368 313.43 42 256 42s-111.418 22.363-152.027 62.973a206.99 206.99 0 00-3.973 4.109V10c0-5.523-4.477-10-10-10S80 4.477 80 10v120H60V10c0-5.523-4.477-10-10-10S40 4.477 40 10v120H20V10c0-5.523-4.477-10-10-10S0 4.477 0 10v130c0 15.777 7.535 30.61 20 39.988v163.797C13.926 399.551 10 462.598 10 472c0 22.055 17.945 40 40 40s40-17.945 40-40c0-7.04-2.2-44.148-5.855-85.762a217.644 217.644 0 0019.828 22.793C144.582 449.637 198.57 472 256 472s111.422-22.363 152.027-62.973a216.408 216.408 0 0031.375-39.691C434.832 417.37 432 464.02 432 472c0 22.055 17.945 40 40 40s40-17.945 40-40c0-9.402-3.926-72.45-10-128.215zM462 275h20v20h-20zm-19.922-124.727C448.082 111.91 461.734 75.027 482 42.035V255h-25.855l-14.141-14.137zM40 275h20v20H40zm38.27-125a30.143 30.143 0 01-13.278 15.98A9.995 9.995 0 0060 174.633V255H40v-80.363a9.996 9.996 0 00-4.992-8.657A30.16 30.16 0 0121.73 150zM50 492c-11.027 0-20-8.973-20-20 0-7.621 10-127.309 10-127.672V315h20v29.328c0 .363 10 120.05 10 127.672 0 11.031-8.973 20-20 20zm206-40c-77.496 0-144.574-45.441-176-111.074V179.988c12.426-9.347 19.945-24.117 19.996-39.836C135.598 92.734 192.273 62 256 62c70.117 0 131.703 37.203 166.074 92.902l-.074 90.09a10.01 10.01 0 002.93 7.082l17.07 17.07v46.426C417.074 394.563 343.125 452 256 452zm216 40c-11.027 0-20-8.973-20-20 0-7.621 10-127.309 10-127.672V315h20v29.328c0 .363 10 120.05 10 127.672 0 11.031-8.973 20-20 20zm0 0"></path>
    <path d="M257.281 336.992c-2.672.04-5.172 1.117-7.031 3.04s-2.86 4.437-2.813 7.109a9.984 9.984 0 002.981 6.98 9.957 9.957 0 007.012 2.871h.16c5.508-.094 9.93-4.644 9.84-10.16a9.95 9.95 0 00-2.98-6.973 9.998 9.998 0 00-7.169-2.867zM336 257c.012 30.582-17.031 58.059-44.469 71.7a9.954 9.954 0 00-5.031 5.769 9.929 9.929 0 00.52 7.633 9.948 9.948 0 008.96 5.558 9.82 9.82 0 004.442-1.05 100.144 100.144 0 0040.137-36.208C350.66 294.442 356 275.98 356 257c0-5.508-4.488-10-10-10-5.508 0-10 4.492-10 10zm0 0"></path>
  </symbol>
  <symbol xmlns="http://www.w3.org/2000/svg" viewBox="0 0 56.966 56.966" id="search">
    <path d="M55.146 51.887L41.588 37.786A22.926 22.926 0 0046.984 23c0-12.682-10.318-23-23-23s-23 10.318-23 23 10.318 23 23 23c4.761 0 9.298-1.436 13.177-4.162l13.661 14.208c.571.593 1.339.92 2.162.92.779 0 1.518-.297 2.079-.837a3.004 3.004 0 00.083-4.242zM23.984 6c9.374 0 17 7.626 17 17s-7.626 17-17 17-17-7.626-17-17 7.626-17 17-17z"></path>
  </symbol>
  <symbol xmlns="http://www.w3.org/2000/svg" viewBox="0 0 433.664 433.664" id="stats">
    <path d="M258.048 37.658h-82.944c-8.483 0-15.36 6.877-15.36 15.36v327.526c0 8.483 6.877 15.36 15.36 15.36h82.944c8.483 0 15.36-6.877 15.36-15.36V53.018c0-8.484-6.877-15.36-15.36-15.36zm160.256 190.976H335.36c-8.483 0-15.36 6.877-15.36 15.36v136.653c0 8.483 6.877 15.36 15.36 15.36h82.944c8.483 0 15.36-6.877 15.36-15.36V243.994c0-8.484-6.877-15.36-15.36-15.36zm-320-68.608H15.36c-8.483 0-15.36 6.877-15.36 15.36v205.056c0 8.483 6.877 15.36 15.36 15.36h82.944c8.483 0 15.36-6.877 15.36-15.36V175.386c0-8.483-6.877-15.36-15.36-15.36z"></path>
  </symbol>
  <symbol xmlns="http://www.w3.org/2000/svg" viewBox="0 0 511.953 511.953" id="tacos">
    <path d="M398.885 226.862a8.534 8.534 0 00-11.934 12.2l12.462 12.196a8.534 8.534 0 1011.933-12.199l-12.461-12.197zm-62.308 60.979a8.534 8.534 0 00-11.934 12.2l12.463 12.196a8.534 8.534 0 1011.933-12.199l-12.462-12.197zm6.229-54.879a8.534 8.534 0 00-11.934 12.2l12.462 12.196a8.534 8.534 0 1011.933-12.199l-12.461-12.197zm-56.079 103.663a8.533 8.533 0 00-11.933 12.2l12.463 12.196a8.534 8.534 0 1011.933-12.199l-12.463-12.197zm-62.304 60.983a8.534 8.534 0 00-14.257 3.963 8.533 8.533 0 002.315 8.229l12.459 12.196a8.534 8.534 0 0014.257-3.963 8.533 8.533 0 00-2.315-8.229l-12.459-12.196zm6.225-54.887a8.534 8.534 0 00-11.934 12.2l12.463 12.196a8.534 8.534 0 1011.933-12.199l-12.462-12.197z"></path>
    <path d="M500.144 155.212a40.014 40.014 0 00-15.396-9.363 51.855 51.855 0 007.696-26.879 46.998 46.998 0 00-14.112-33.883 48.157 48.157 0 00-29.05-13.467 50.24 50.24 0 00-14.758-29.408 54.408 54.408 0 00-53.567-12.467 47.114 47.114 0 00-8.942-12.117c-20.675-18.95-52.649-18.106-72.296 1.908l-31.154 30.488-.001.002L7.981 305.037a26.124 26.124 0 00-7.217 12.554c-.08.309-.089.622-.157.933-.013.091-.035.177-.045.268a23.68 23.68 0 001.811 15.457c7.121 14.4 26.654 42.367 79.258 93.846 52.583 51.463 81.142 70.567 95.842 77.533a24.875 24.875 0 0010.625 2.371 23.896 23.896 0 008.942-1.708 26.004 26.004 0 009.804-6.117l263.407-257.776 28.339-27.729a43.98 43.98 0 0013.363-31.133 39.296 39.296 0 00-11.809-28.324zM303.998 39.229l46.146 75.529a155.344 155.344 0 019.129 17.112c.958 2.139 1.785 4.313 2.644 6.48a191.543 191.543 0 00-64.94-.767 216.036 216.036 0 00-115.65 58.792c-47.986 45.336-70.352 111.527-59.7 176.677a180.88 180.88 0 01-25.9-13.082l-75.131-43.4L303.998 39.229zm75.338 96.688c-1.312-3.697-2.861-7.391-4.509-11.072a172.085 172.085 0 00-10.138-19.012L350.657 82.87a31.95 31.95 0 0133.178 6.792c5.737 5.619 8.97 13.311 8.97 21.341s-3.231 15.722-8.966 21.343v-.001a30.817 30.817 0 01-4.503 3.572zM93.564 415.895a540.19 540.19 0 01-68.653-77.128l62.111 35.878a193.129 193.129 0 0036.579 17.417 8.55 8.55 0 002.817.483l.093-.015a167.31 167.31 0 0016.332 36.794l34.074 56.611c-14.027-8.402-39.737-27.356-83.353-70.04zm361.929-182.933l-.001.002-258.596 253.067-39.428-65.506a150.96 150.96 0 01-16.746-40.054c-15.321-59.325 4.813-125.192 52.538-171.895a198.826 198.826 0 01106.408-54.138 173.237 173.237 0 0167.712 2.263 156.468 156.468 0 0142.967 16.825l66.638 38.406-21.492 21.03zm-46.895-111.147a26.788 26.788 0 0115.737 7.485c9.421 9.004 10.396 23.716 2.244 33.884l-7.715-4.446a170.573 170.573 0 00-25.682-11.989c.866-.735 1.775-1.402 2.595-2.202a46.713 46.713 0 0012.821-22.732zm80.708 77.52l-47.763-27.527c11.901-17.06 9.668-40.234-5.271-54.708a43.787 43.787 0 00-26.842-12.355 46.813 46.813 0 00-13.658-27.279c-14.377-14.037-35.906-17.786-54.182-9.435l-24.75-40.506c13.133-9.588 31.195-8.628 43.237 2.299a29.64 29.64 0 017.875 13.212 8.536 8.536 0 0011.875 5.366 37.879 37.879 0 0142.758 6.008 33.659 33.659 0 0110.083 25.304 8.534 8.534 0 009.017 8.759 32.069 32.069 0 0124.713 8.812 30.054 30.054 0 018.979 21.683 35.66 35.66 0 01-10.929 25.196c-.456.488-.949.941-1.475 1.354a8.532 8.532 0 005.858 15.429 24.013 24.013 0 0119.375 6.462 22.351 22.351 0 016.679 16.129 25.915 25.915 0 01-5.579 15.797z"></path>
  </symbol>
  <symbol xmlns="http://www.w3.org/2000/svg" viewBox="-42 0 512 512.002" id="user">
    <path d="M210.352 246.633c33.882 0 63.222-12.153 87.195-36.13 23.973-23.972 36.125-53.304 36.125-87.19 0-33.876-12.152-63.211-36.129-87.192C273.566 12.152 244.23 0 210.352 0c-33.887 0-63.22 12.152-87.192 36.125s-36.129 53.309-36.129 87.188c0 33.886 12.156 63.222 36.133 87.195 23.977 23.969 53.313 36.125 87.188 36.125zm215.777 147.07c-.692-9.976-2.09-20.86-4.149-32.351-2.078-11.579-4.753-22.524-7.957-32.528-3.308-10.34-7.808-20.55-13.37-30.336-5.774-10.156-12.555-19-20.165-26.277-7.957-7.613-17.699-13.734-28.965-18.2-11.226-4.44-23.668-6.69-36.976-6.69-5.227 0-10.281 2.144-20.043 8.5a2711.03 2711.03 0 01-20.879 13.46c-6.707 4.274-15.793 8.278-27.016 11.903-10.949 3.543-22.066 5.34-33.039 5.34-10.972 0-22.086-1.797-33.047-5.34-11.21-3.622-20.296-7.625-26.996-11.899a2853.13 2853.13 0 01-20.898-13.469c-9.75-6.355-14.809-8.5-20.035-8.5-13.313 0-25.75 2.254-36.973 6.7-11.258 4.457-21.004 10.578-28.969 18.199-7.605 7.281-14.39 16.12-20.156 26.273-5.558 9.785-10.058 19.992-13.371 30.34-3.2 10.004-5.875 20.945-7.953 32.524-2.059 11.476-3.457 22.363-4.149 32.363A438.821 438.821 0 000 423.949c0 26.727 8.496 48.363 25.25 64.32 16.547 15.747 38.441 23.735 65.066 23.735h246.532c26.625 0 48.511-7.984 65.062-23.734 16.758-15.946 25.254-37.586 25.254-64.325-.004-10.316-.351-20.492-1.035-30.242zm0 0"></path>
  </symbol>
</svg>